<?xml version="1.0" encoding="UTF-8"?>
<!DOCTYPE svg PUBLIC "-//W3C//DTD SVG 1.1//EN" "http://www.w3.org/Graphics/SVG/1.1/DTD/svg11.dtd">
<!-- Creator: CorelDRAW -->
<svg xmlns="http://www.w3.org/2000/svg" xml:space="preserve" width="1170px" height="300px" version="1.1" shape-rendering="geometricPrecision" text-rendering="geometricPrecision" image-rendering="optimizeQuality" fill-rule="evenodd" clip-rule="evenodd"
viewBox="0 0 19.52 5"
 xmlns:xlink="http://www.w3.org/1999/xlink"
 xmlns:xodm="http://www.corel.com/coreldraw/odm/2003">
 <g id="Layer_x0020_1">
  <metadata id="CorelCorpID_0Corel-Layer"/>
  <g id="_1794474685904">
   <path fill="#D7182A" d="M1.43 0.2l0 0.85c1.97,0.04 1.97,2.86 0,2.91 0,0.34 -0.08,1 0.1,1 1.29,0 2.38,-1.19 2.38,-2.22 0,-0.66 -0.01,-1.12 -0.47,-1.7 -0.06,-0.09 -0.19,-0.25 -0.26,-0.32 -0.07,-0.05 -0.21,-0.17 -0.29,-0.23 -0.32,-0.24 -1.46,-0.71 -1.46,-0.29z"/>
   <path fill="#D7182A" d="M4.39 1.05c0.77,0.06 1.42,0.61 1.42,1.27 0,0.53 -0.02,0.87 -0.43,1.25 -0.23,0.21 -0.61,0.35 -0.99,0.39l0 1c0.72,0 1.37,-0.33 1.73,-0.7 1.58,-1.59 0.45,-4.22 -1.73,-4.22l0 1.01z"/>
   <path fill="#D7182A" d="M7.29 2.48c0,1.41 1.13,2.48 2.49,2.48l0 -1c-0.85,-0.07 -1.45,-0.62 -1.47,-1.44 -0.02,-0.79 0.59,-1.4 1.47,-1.47l0 -1.01c-1.36,0 -2.49,1.09 -2.49,2.44z"/>
   <polygon fill="#D7182A" points="0,4.96 1,4.96 1,1.52 0,1.52 "/>
   <polygon fill="#004B8D" points="0,1.05 1,1.05 1,0.04 0,0.04 "/>
   <path fill="#6D6E70" fill-rule="nonzero" d="M10.69 0.93l-0.15 0 0 -0.91 0.15 0 0 0.91zm1.01 0l-0.17 0 -0.44 -0.67c-0.01,-0.02 -0.02,-0.04 -0.02,-0.05l-0.01 0c0.01,0.02 0.01,0.06 0.01,0.12l0 0.6 -0.15 0 0 -0.91 0.18 0 0.42 0.65c0.02,0.03 0.03,0.05 0.04,0.06l0 0c-0.01,-0.02 -0.01,-0.07 -0.01,-0.12l0 -0.59 0.15 0 0 0.91zm0.23 0l0 -0.91 0.26 0c0.34,0 0.51,0.14 0.51,0.44 0,0.14 -0.05,0.26 -0.14,0.34 -0.1,0.09 -0.22,0.13 -0.38,0.13l-0.25 0zm0.15 -0.79l0 0.66 0.12 0c0.11,0 0.19,-0.02 0.25,-0.08 0.06,-0.06 0.09,-0.15 0.09,-0.25 0,-0.22 -0.11,-0.33 -0.34,-0.33l-0.12 0zm1.16 0.81c-0.13,0 -0.23,-0.04 -0.31,-0.13 -0.08,-0.09 -0.12,-0.2 -0.12,-0.33 0,-0.15 0.04,-0.27 0.12,-0.36 0.08,-0.09 0.19,-0.13 0.33,-0.13 0.13,0 0.23,0.04 0.31,0.13 0.08,0.08 0.12,0.2 0.12,0.33 0,0.15 -0.04,0.27 -0.12,0.36 -0.08,0.09 -0.19,0.13 -0.33,0.13zm0.01 -0.82c-0.08,0 -0.15,0.04 -0.2,0.1 -0.06,0.06 -0.08,0.14 -0.08,0.25 0,0.1 0.02,0.18 0.07,0.24 0.05,0.06 0.12,0.1 0.2,0.1 0.09,0 0.16,-0.03 0.21,-0.09 0.05,-0.06 0.08,-0.15 0.08,-0.25 0,-0.11 -0.03,-0.2 -0.08,-0.26 -0.04,-0.06 -0.11,-0.09 -0.2,-0.09zm1.38 0.8l-0.16 0 -0.44 -0.67c-0.01,-0.02 -0.02,-0.04 -0.03,-0.05l0 0c0,0.02 0,0.06 0,0.12l0 0.6 -0.14 0 0 -0.91 0.17 0 0.43 0.65c0.02,0.03 0.03,0.05 0.03,0.06l0 0c0,-0.02 0,-0.07 0,-0.12l0 -0.59 0.14 0 0 0.91zm0.75 0l-0.52 0 0 -0.91 0.5 0 0 0.12 -0.35 0 0 0.26 0.32 0 0 0.13 -0.32 0 0 0.27 0.37 0 0 0.13zm0.12 -0.03l0 -0.16c0.01,0.01 0.03,0.02 0.05,0.03 0.02,0.01 0.04,0.02 0.06,0.03 0.02,0.01 0.04,0.01 0.07,0.02 0.02,0 0.04,0 0.06,0 0.06,0 0.11,-0.01 0.14,-0.03 0.03,-0.02 0.05,-0.05 0.05,-0.09 0,-0.02 -0.01,-0.04 -0.02,-0.06 -0.01,-0.01 -0.03,-0.03 -0.04,-0.04 -0.02,-0.02 -0.04,-0.03 -0.07,-0.04 -0.03,-0.01 -0.05,-0.03 -0.08,-0.04 -0.03,-0.02 -0.06,-0.03 -0.09,-0.05 -0.03,-0.02 -0.05,-0.04 -0.07,-0.06 -0.02,-0.02 -0.03,-0.04 -0.05,-0.07 -0.01,-0.02 -0.01,-0.05 -0.01,-0.09 0,-0.04 0.01,-0.08 0.03,-0.11 0.02,-0.03 0.04,-0.06 0.07,-0.08 0.03,-0.02 0.07,-0.03 0.11,-0.04 0.04,-0.01 0.08,-0.02 0.13,-0.02 0.09,0 0.16,0.01 0.21,0.03l0 0.15c-0.06,-0.03 -0.12,-0.05 -0.21,-0.05 -0.02,0 -0.04,0 -0.06,0 -0.03,0.01 -0.05,0.01 -0.06,0.02 -0.02,0.01 -0.04,0.03 -0.05,0.04 -0.01,0.02 -0.01,0.04 -0.01,0.06 0,0.02 0,0.04 0.01,0.05 0.01,0.02 0.02,0.03 0.04,0.04 0.01,0.01 0.03,0.03 0.06,0.04 0.02,0.01 0.05,0.02 0.08,0.04 0.03,0.01 0.06,0.03 0.09,0.05 0.03,0.02 0.05,0.04 0.08,0.06 0.02,0.02 0.03,0.05 0.05,0.07 0.01,0.03 0.02,0.06 0.02,0.1 0,0.04 -0.01,0.08 -0.03,0.11 -0.02,0.04 -0.05,0.06 -0.08,0.08 -0.03,0.02 -0.07,0.04 -0.11,0.05 -0.04,0 -0.08,0.01 -0.13,0.01 -0.02,0 -0.03,0 -0.06,0 -0.02,-0.01 -0.04,-0.01 -0.07,-0.02 -0.02,0 -0.04,-0.01 -0.06,-0.01 -0.02,-0.01 -0.04,-0.02 -0.05,-0.02zm0.91 0.03l-0.16 0 0 -0.91 0.16 0 0 0.91zm0.98 0l-0.17 0 -0.08 -0.23 -0.36 0 -0.08 0.23 -0.17 0 0.35 -0.91 0.17 0 0.34 0.91zm-0.29 -0.35l-0.13 -0.37c0,-0.01 -0.01,-0.03 -0.01,-0.06l0 0c-0.01,0.03 -0.01,0.05 -0.01,0.06l-0.13 0.37 0.28 0zm-6.56 1.71l0 -0.92 0.26 0c0.34,0 0.51,0.15 0.51,0.45 0,0.14 -0.05,0.25 -0.14,0.34 -0.09,0.08 -0.22,0.13 -0.38,0.13l-0.25 0zm0.15 -0.79l0 0.66 0.12 0c0.11,0 0.19,-0.03 0.25,-0.09 0.06,-0.06 0.09,-0.14 0.09,-0.25 0,-0.22 -0.11,-0.32 -0.33,-0.32l-0.13 0zm1.3 0.79l-0.51 0 0 -0.92 0.49 0 0 0.13 -0.34 0 0 0.26 0.32 0 0 0.13 -0.32 0 0 0.27 0.36 0 0 0.13zm0.12 -0.04l0 -0.16c0.02,0.01 0.03,0.03 0.05,0.04 0.02,0.01 0.04,0.02 0.07,0.02 0.02,0.01 0.04,0.01 0.06,0.02 0.02,0 0.04,0 0.06,0 0.07,0 0.11,-0.01 0.14,-0.03 0.04,-0.02 0.05,-0.05 0.05,-0.09 0,-0.02 0,-0.04 -0.01,-0.06 -0.01,-0.01 -0.03,-0.03 -0.05,-0.04 -0.02,-0.01 -0.04,-0.03 -0.06,-0.04 -0.03,-0.01 -0.06,-0.02 -0.09,-0.04 -0.03,-0.01 -0.06,-0.03 -0.08,-0.05 -0.03,-0.01 -0.05,-0.03 -0.07,-0.05 -0.02,-0.02 -0.04,-0.05 -0.05,-0.07 -0.01,-0.03 -0.02,-0.06 -0.02,-0.1 0,-0.04 0.01,-0.08 0.03,-0.11 0.02,-0.03 0.05,-0.06 0.08,-0.08 0.03,-0.02 0.07,-0.03 0.11,-0.04 0.04,-0.01 0.08,-0.02 0.12,-0.02 0.1,0 0.17,0.01 0.21,0.03l0 0.16c-0.05,-0.04 -0.12,-0.06 -0.2,-0.06 -0.02,0 -0.04,0 -0.07,0.01 -0.02,0 -0.04,0.01 -0.06,0.02 -0.01,0.01 -0.03,0.02 -0.04,0.03 -0.01,0.02 -0.02,0.04 -0.02,0.06 0,0.02 0.01,0.04 0.02,0.05 0,0.02 0.02,0.03 0.03,0.04 0.02,0.02 0.04,0.03 0.06,0.04 0.03,0.01 0.05,0.02 0.09,0.04 0.03,0.01 0.06,0.03 0.09,0.05 0.02,0.02 0.05,0.04 0.07,0.06 0.02,0.02 0.04,0.05 0.05,0.08 0.02,0.02 0.02,0.05 0.02,0.09 0,0.04 -0.01,0.08 -0.03,0.12 -0.02,0.03 -0.04,0.05 -0.07,0.07 -0.03,0.02 -0.07,0.04 -0.11,0.05 -0.04,0.01 -0.09,0.01 -0.13,0.01 -0.02,0 -0.04,0 -0.06,0 -0.02,-0.01 -0.05,-0.01 -0.07,-0.01 -0.02,-0.01 -0.04,-0.01 -0.07,-0.02 -0.02,-0.01 -0.03,-0.01 -0.05,-0.02zm0.92 0.04l-0.16 0 0 -0.92 0.16 0 0 0.92zm0.94 -0.07c-0.1,0.05 -0.2,0.08 -0.32,0.08 -0.14,0 -0.25,-0.04 -0.33,-0.13 -0.09,-0.08 -0.13,-0.19 -0.13,-0.33 0,-0.14 0.05,-0.26 0.14,-0.35 0.09,-0.09 0.21,-0.14 0.35,-0.14 0.1,0 0.19,0.02 0.26,0.05l0 0.15c-0.07,-0.04 -0.16,-0.07 -0.25,-0.07 -0.1,0 -0.18,0.04 -0.24,0.1 -0.07,0.06 -0.1,0.15 -0.1,0.25 0,0.11 0.03,0.19 0.08,0.25 0.06,0.06 0.13,0.09 0.22,0.09 0.07,0 0.12,-0.01 0.17,-0.04l0 -0.22 -0.2 0 0 -0.12 0.35 0 0 0.43zm0.97 0.07l-0.16 0 -0.44 -0.68c-0.01,-0.02 -0.02,-0.03 -0.03,-0.05l0 0c0,0.02 0,0.06 0,0.12l0 0.61 -0.14 0 0 -0.92 0.17 0 0.43 0.66c0.01,0.02 0.03,0.04 0.03,0.05l0 0c0,-0.02 0,-0.06 0,-0.12l0 -0.59 0.14 0 0 0.92zm-4.4 1.35l0 -0.92 0.26 0c0.34,0 0.51,0.15 0.51,0.45 0,0.14 -0.05,0.25 -0.14,0.34 -0.09,0.08 -0.22,0.13 -0.38,0.13l-0.25 0zm0.15 -0.79l0 0.66 0.12 0c0.11,0 0.19,-0.03 0.25,-0.09 0.06,-0.06 0.09,-0.14 0.09,-0.25 0,-0.21 -0.11,-0.32 -0.33,-0.32l-0.13 0zm1.3 0.79l-0.51 0 0 -0.92 0.49 0 0 0.13 -0.34 0 0 0.26 0.32 0 0 0.13 -0.32 0 0 0.27 0.36 0 0 0.13zm0.89 -0.92l-0.33 0.92 -0.17 0 -0.33 -0.92 0.17 0 0.22 0.7c0.01,0.02 0.02,0.04 0.02,0.07l0 0c0.01,-0.02 0.01,-0.05 0.02,-0.08l0.23 -0.69 0.17 0zm0.63 0.92l-0.51 0 0 -0.92 0.49 0 0 0.13 -0.34 0 0 0.26 0.32 0 0 0.13 -0.32 0 0 0.27 0.36 0 0 0.13zm0.67 0l-0.5 0 0 -0.92 0.15 0 0 0.79 0.35 0 0 0.13zm0.48 0.01c-0.14,0 -0.24,-0.04 -0.32,-0.13 -0.08,-0.08 -0.12,-0.19 -0.12,-0.33 0,-0.15 0.04,-0.27 0.12,-0.35 0.08,-0.09 0.19,-0.14 0.33,-0.14 0.13,0 0.23,0.05 0.31,0.13 0.08,0.09 0.12,0.2 0.12,0.34 0,0.15 -0.04,0.27 -0.12,0.35 -0.08,0.09 -0.19,0.13 -0.32,0.13zm0 -0.81c-0.08,0 -0.15,0.03 -0.2,0.09 -0.06,0.06 -0.08,0.15 -0.08,0.25 0,0.1 0.02,0.18 0.08,0.25 0.05,0.06 0.11,0.09 0.2,0.09 0.08,0 0.15,-0.03 0.2,-0.09 0.05,-0.06 0.08,-0.14 0.08,-0.25 0,-0.11 -0.02,-0.19 -0.07,-0.25 -0.05,-0.06 -0.12,-0.09 -0.21,-0.09zm0.76 0.46l0 0.34 -0.15 0 0 -0.92 0.28 0c0.1,0 0.18,0.02 0.24,0.07 0.06,0.05 0.09,0.12 0.09,0.21 0,0.09 -0.03,0.16 -0.09,0.22 -0.06,0.06 -0.14,0.08 -0.25,0.08l-0.12 0zm0 -0.45l0 0.33 0.1 0c0.06,0 0.11,-0.01 0.15,-0.04 0.03,-0.04 0.05,-0.08 0.05,-0.13 0,-0.11 -0.06,-0.16 -0.19,-0.16l-0.11 0zm1.6 0.79l-0.15 0 0 -0.6c0,-0.05 0,-0.1 0.01,-0.17l-0.01 0c0,0.03 -0.01,0.06 -0.02,0.08l-0.27 0.69 -0.11 0 -0.27 -0.68c-0.01,-0.02 -0.02,-0.05 -0.03,-0.09l0 0c0,0.03 0,0.09 0,0.17l0 0.6 -0.14 0 0 -0.92 0.22 0 0.24 0.61c0.02,0.05 0.03,0.08 0.04,0.11l0 0c0.01,-0.05 0.03,-0.09 0.04,-0.11l0.24 -0.61 0.21 0 0 0.92zm0.74 0l-0.51 0 0 -0.92 0.49 0 0 0.13 -0.34 0 0 0.26 0.31 0 0 0.13 -0.31 0 0 0.27 0.36 0 0 0.13zm0.94 0l-0.16 0 -0.44 -0.68c-0.01,-0.01 -0.02,-0.03 -0.03,-0.05l0 0c0,0.02 0,0.06 0,0.13l0 0.6 -0.15 0 0 -0.92 0.18 0 0.42 0.66c0.02,0.03 0.03,0.04 0.04,0.05l0 0c0,-0.02 0,-0.06 0,-0.12l0 -0.59 0.14 0 0 0.92zm0.82 -0.79l-0.27 0 0 0.79 -0.15 0 0 -0.79 -0.26 0 0 -0.13 0.68 0 0 0.13zm-8.34 2.1c-0.07,0.04 -0.16,0.05 -0.26,0.05 -0.13,0 -0.24,-0.04 -0.32,-0.12 -0.08,-0.09 -0.12,-0.2 -0.12,-0.33 0,-0.15 0.04,-0.27 0.13,-0.36 0.1,-0.09 0.21,-0.13 0.35,-0.13 0.09,0 0.16,0.01 0.22,0.03l0 0.16c-0.06,-0.04 -0.13,-0.06 -0.21,-0.06 -0.1,0 -0.18,0.03 -0.24,0.1 -0.06,0.06 -0.09,0.14 -0.09,0.25 0,0.1 0.03,0.18 0.09,0.24 0.05,0.06 0.13,0.09 0.22,0.09 0.09,0 0.16,-0.02 0.23,-0.06l0 0.14zm0.69 0.04l-0.52 0 0 -0.92 0.5 0 0 0.13 -0.35 0 0 0.26 0.32 0 0 0.13 -0.32 0 0 0.27 0.37 0 0 0.13zm0.94 0l-0.17 0 -0.44 -0.68c-0.01,-0.01 -0.02,-0.03 -0.02,-0.05l-0.01 0c0.01,0.02 0.01,0.06 0.01,0.13l0 0.6 -0.15 0 0 -0.92 0.18 0 0.42 0.66c0.02,0.03 0.03,0.05 0.04,0.06l0 0c-0.01,-0.03 -0.01,-0.07 -0.01,-0.13l0 -0.59 0.15 0 0 0.92zm0.81 -0.79l-0.26 0 0 0.79 -0.15 0 0 -0.79 -0.26 0 0 -0.13 0.67 0 0 0.13zm0.65 0.79l-0.51 0 0 -0.92 0.49 0 0 0.13 -0.34 0 0 0.26 0.32 0 0 0.13 -0.32 0 0 0.27 0.36 0 0 0.13zm0.88 0l-0.18 0 -0.15 -0.25c-0.01,-0.02 -0.02,-0.04 -0.04,-0.05 -0.01,-0.02 -0.02,-0.03 -0.04,-0.04 -0.01,-0.01 -0.02,-0.02 -0.04,-0.03 -0.01,0 -0.03,0 -0.05,0l-0.06 0 0 0.37 -0.15 0 0 -0.92 0.3 0c0.04,0 0.08,0.01 0.12,0.02 0.03,0.01 0.07,0.02 0.09,0.04 0.03,0.02 0.05,0.05 0.07,0.08 0.01,0.03 0.02,0.07 0.02,0.11 0,0.03 -0.01,0.06 -0.02,0.09 -0.01,0.03 -0.02,0.05 -0.04,0.07 -0.01,0.02 -0.04,0.04 -0.06,0.06 -0.03,0.01 -0.05,0.02 -0.08,0.03l0 0c0.01,0.01 0.03,0.02 0.04,0.03 0.01,0.01 0.02,0.03 0.03,0.04 0.02,0.01 0.03,0.02 0.04,0.04 0.01,0.01 0.02,0.03 0.03,0.05l0.17 0.26zm-0.56 -0.79l0 0.29 0.13 0c0.02,0 0.04,0 0.06,-0.01 0.02,0 0.04,-0.01 0.05,-0.03 0.02,-0.01 0.03,-0.03 0.04,-0.05 0,-0.02 0.01,-0.04 0.01,-0.06 0,-0.05 -0.02,-0.08 -0.04,-0.11 -0.03,-0.02 -0.07,-0.03 -0.12,-0.03l-0.13 0z"/>
  </g>
 </g>
</svg>
