<svg width="1200" height="500" viewBox="0 0 1200 500" fill="none" xmlns="http://www.w3.org/2000/svg">
<path d="M814.294 94.0074L767.804 140.498C755.563 152.74 755.563 172.59 767.804 184.833C773.926 190.953 781.949 194.015 789.972 194.015C797.994 194.015 806.018 190.953 812.14 184.833L858.63 138.343C870.872 126.1 870.872 106.25 858.63 94.0074C852.509 87.8874 844.485 84.8273 836.462 84.8273C828.439 84.8273 820.416 87.8874 814.294 94.0074V94.0074Z" fill="url(#paint0_linear_1115_1259)"/>
<path d="M946.072 91.2737L796.585 240.76C784.344 253.003 784.344 272.853 796.585 285.096C802.707 291.216 810.731 294.277 818.753 294.277C826.776 294.277 834.8 291.216 840.921 285.096L990.408 135.609C1002.65 123.366 1002.65 103.516 990.408 91.2732C984.287 85.1533 976.264 82.0937 968.24 82.0937C960.217 82.0937 952.194 85.1533 946.072 91.2732L946.072 91.2737Z" fill="url(#paint1_linear_1115_1259)"/>
<path d="M1105.12 319.193L1058.63 365.683C1046.39 377.926 1046.39 397.776 1058.63 410.019C1064.75 416.139 1072.78 419.2 1080.8 419.2C1088.82 419.2 1096.85 416.139 1102.97 410.019L1149.46 363.528C1161.7 351.286 1161.7 331.436 1149.46 319.193C1143.34 313.073 1135.31 310.013 1127.29 310.013C1119.27 310.013 1111.24 313.073 1105.12 319.193V319.193Z" fill="url(#paint2_linear_1115_1259)"/>
<path d="M1079.16 216.143L929.675 365.63C917.432 377.872 917.432 397.721 929.675 409.964C935.798 416.086 943.819 419.146 951.843 419.146C959.867 419.146 967.888 416.084 974.011 409.963L1123.49 260.476C1135.74 248.235 1135.74 228.385 1123.49 216.142C1117.37 210.02 1109.35 206.96 1101.33 206.961C1093.31 206.961 1085.28 210.022 1079.16 216.143V216.143Z" fill="url(#paint3_linear_1115_1259)"/>
<path d="M1077.19 89.2297L821.411 345.006L794.114 319.499C781.464 307.676 761.625 308.348 749.805 320.999C737.985 333.649 738.656 353.487 751.307 365.307L800.745 411.507C806.78 417.148 814.466 419.952 822.146 419.952C830.181 419.952 838.205 416.881 844.317 410.771L1121.52 133.565C1133.76 121.322 1133.76 101.472 1121.52 89.229C1115.4 83.1077 1107.38 80.0466 1099.35 80.0466C1091.33 80.0466 1083.31 83.1077 1077.18 89.229L1077.19 89.2297Z" fill="url(#paint4_linear_1115_1259)"/>
<path d="M105.833 460.667L16.6665 200.167L250 39.3333L483.333 200.167L394.167 460.667H105.833Z" fill="black"/>
<path d="M250 44.3333L22.833 201L109.666 454.833H390.333L477.166 201L250 44.3333ZM384.333 446.667H115.666L115.333 445.5L32.6663 204.167L250 54.3333L467.333 204.167L466.833 205.333L384.333 446.667Z" fill="white"/>
<path d="M251 55L250 54.3333L32.6665 204.167L115.333 445.5L115.666 446.667H384.333L466.833 205.333L467.333 204.167L251 55Z" fill="black"/>
<path d="M117.833 443.167L36.1665 204.333L250 56.8333L463.833 204.333L382.166 443.167H117.833Z" fill="#0D5AA7"/>
<path d="M293.667 312C287.833 312.5 286.333 310.167 286.333 310.167L285.5 308.833L285.333 310.333C284 320.167 277.333 324.667 277.333 324.667L274.5 326.5L277.667 325.667C293.167 321.333 294.167 312.833 294.333 312.5V311.833L293.667 312Z" fill="black"/>
<path d="M286.166 311.667C285.166 318 282 322 279.833 324C290.166 320.5 292.5 315 293 313.167C289.166 313.333 287.166 312.333 286.166 311.667Z" fill="#FAC000"/>
<path d="M276.833 189.5C276.833 188.167 276 187.167 274.666 186.5C276.333 186 277.5 184.833 277.5 183.333C277.5 182.333 276.833 181.333 275.833 180.667V179.5C275.666 168.5 264 159.667 249.666 159.667C235.5 159.667 223.666 168.5 223.5 179.5V180.667C222.5 181.333 221.833 182.333 221.833 183.333C221.833 184.833 223 186 224.666 186.5C223.333 187.167 222.5 188.167 222.5 189.5C222.5 190.833 223.666 192.167 225.166 192.667C224 193.333 223.166 194.333 223.166 195.667C223.166 197 224.166 198.167 225.833 198.833C224.5 199.5 223.833 200.5 223.833 201.667C223.833 203.167 224.833 204.333 226.5 205C225.166 205.667 224.333 206.667 224.333 207.833C224.333 209.333 225.5 210.5 227 211C225.833 211.667 225 212.833 225 214C225 215.5 226.166 216.667 227.666 217.167C226.5 217.833 225.666 219 225.666 220.167C225.666 221.5 226.666 222.833 228.333 223.333C227.166 224 226.333 225.167 226.333 226.333C226.333 227.667 227.333 228.833 228.833 229.5C227.666 230.167 226.833 231.167 226.833 232.5C226.833 233.833 228 235 229.5 235.667C228.333 236.333 227.5 237.333 227.5 238.5C227.5 240 228.666 241.167 230.166 241.833C229 242.333 228.166 243.5 228.166 244.667C228.166 246.167 229.333 247.333 230.666 247.833C229.666 248.5 228.833 249.5 228.833 250.833C228.833 252.333 230 253.5 231.333 254C230.333 254.667 229.5 255.667 229.5 257C229.5 258.5 230.666 259.667 232 260.167C230.833 260.833 230 261.833 230 263.167C230 264.5 231.166 265.833 232.5 266.333C231.5 267 230.666 268 230.666 269.167C230.666 270.667 231.833 271.833 233.166 272.5C232.166 273 231.333 274.167 231.333 275.333C231.333 276.833 232.5 278 233.833 278.667C232.833 279.167 232 280.333 232 281.5C232 283 233.166 284.167 234.333 284.667C233.333 285.333 232.666 286.5 232.666 287.667C232.666 289 233.666 290.333 235 290.833C234 291.5 233.166 292.5 233.166 293.833C233.166 295.167 234.333 296.5 235.666 297C234.666 297.667 233.833 298.667 233.833 299.833C233.833 301.333 235 302.5 236.166 303.167C235.333 303.833 234.5 304.833 234.5 306C234.5 307.5 235.666 308.667 236.833 309.333C235.833 310 235.166 311 235.166 312.167C235.166 313.5 236.166 314.833 237.5 315.333C236.5 316 235.833 317.167 235.833 318.333C235.833 319.833 236.833 321 238 321.5C237.166 322.167 236.333 323.167 236.333 324.5C236.333 326 237.5 327.167 238.666 327.667C237.833 328.333 237 329.333 237 330.5C237 332 238.166 333.333 239.333 333.833C238.333 334.5 237.666 335.5 237.666 336.667C237.666 338.167 238.833 339.5 239.833 340C239 340.667 238.333 341.667 238.333 342.833C238.333 344.333 239.333 345.5 240.5 346.167C239.666 346.833 238.833 347.833 238.833 349C238.833 350.833 240.833 352.5 242.166 352.5H257.166C258.5 352.5 260.5 350.833 260.5 349C260.5 347.833 259.666 346.833 258.833 346.167C260 345.5 261 344.333 261 342.833C261 341.667 260.333 340.667 259.5 340C260.5 339.5 261.666 338.167 261.666 336.667C261.666 335.5 261 334.5 260 333.833C261.166 333.333 262.333 332 262.333 330.5C262.333 329.333 261.5 328.333 260.666 327.667C261.833 327.167 263 326 263 324.5C263 323.167 262.166 322.167 261.333 321.5C262.5 321 263.666 319.833 263.666 318.333C263.666 317.167 262.833 316 261.833 315.333C263.166 314.833 264.166 313.5 264.166 312.167C264.166 311 263.5 310 262.5 309.333C263.666 308.667 264.833 307.5 264.833 306C264.833 304.833 264.166 303.833 263.166 303.167C264.333 302.5 265.5 301.333 265.5 299.833C265.5 298.667 264.666 297.667 263.666 297C265 296.5 266.166 295.167 266.166 293.833C266.166 292.5 265.333 291.5 264.333 290.833C265.666 290.333 266.666 289 266.666 287.667C266.666 286.5 266 285.333 265 284.667C266.166 284.167 267.333 283 267.333 281.5C267.333 280.333 266.5 279.167 265.5 278.667C266.833 278 268 276.833 268 275.333C268 274.167 267.166 273 266.166 272.5C267.5 271.833 268.666 270.667 268.666 269.167C268.666 268 267.833 267 266.833 266.333C268.166 265.833 269.333 264.5 269.333 263.167C269.333 261.833 268.5 260.833 267.333 260.167C268.833 259.667 269.833 258.5 269.833 257C269.833 255.667 269.166 254.667 268 254C269.333 253.5 270.5 252.333 270.5 250.833C270.5 249.5 269.666 248.5 268.666 247.833C270 247.333 271.166 246.167 271.166 244.667C271.166 243.5 270.333 242.333 269.166 241.833C270.666 241.167 271.833 240 271.833 238.5C271.833 237.333 271 236.333 269.833 235.667C271.333 235 272.5 233.833 272.5 232.5C272.5 231.167 271.666 230.167 270.5 229.5C272 228.833 273 227.667 273 226.333C273 225.167 272.333 224 271 223.333C272.666 222.833 273.666 221.5 273.666 220.167C273.666 219 272.833 217.833 271.666 217.167C273.166 216.667 274.333 215.5 274.333 214C274.333 212.833 273.5 211.667 272.333 211C273.833 210.5 275 209.333 275 207.833C275 206.667 274.166 205.667 272.833 205C274.5 204.333 275.666 203.167 275.666 201.667C275.666 200.5 274.833 199.5 273.5 198.833C275.166 198.167 276.166 197 276.166 195.667C276.166 194.333 275.333 193.333 274.166 192.667C275.666 192.167 276.833 190.833 276.833 189.5Z" fill="black"/>
<path d="M272.666 180.833H226.666C224.666 180.833 222.833 182 222.833 183.333C222.833 184.667 224.666 185.833 226.666 185.833H272.666C274.833 185.833 276.5 184.667 276.5 183.333C276.5 182 274.833 180.833 272.666 180.833Z" fill="#FAC000"/>
<path d="M227.166 187C225.166 187 223.5 188.167 223.5 189.5C223.5 190.833 225.166 192 227.166 192H272.166C274.166 192 275.833 190.833 275.833 189.5C275.833 188.167 274.166 187 272.166 187H227.166Z" fill="#FAC000"/>
<path d="M227.833 198.167H271.5C273.5 198.167 275.167 197 275.167 195.667C275.167 194.167 273.5 193.167 271.5 193.167H227.833C225.833 193.167 224.167 194.167 224.167 195.667C224.167 197 225.833 198.167 227.833 198.167Z" fill="#FAC000"/>
<path d="M228.333 204.333H271C272.833 204.333 274.5 203.167 274.5 201.667C274.5 200.333 272.833 199.167 271 199.167H228.333C226.5 199.167 224.833 200.333 224.833 201.667C224.833 203.167 226.5 204.333 228.333 204.333Z" fill="#FAC000"/>
<path d="M229 210.333H270.333C272.333 210.333 273.833 209.167 273.833 207.833C273.833 206.5 272.333 205.333 270.333 205.333H229C227 205.333 225.5 206.5 225.5 207.833C225.5 209.167 227 210.333 229 210.333Z" fill="#FAC000"/>
<path d="M229.5 216.5H269.833C271.666 216.5 273.333 215.333 273.333 214C273.333 212.667 271.666 211.5 269.833 211.5H229.5C227.666 211.5 226 212.667 226 214C226 215.333 227.666 216.5 229.5 216.5Z" fill="#FAC000"/>
<path d="M230.167 222.667H269.333C271 222.667 272.667 221.5 272.667 220.167C272.667 218.833 271 217.667 269.333 217.667H230.167C228.333 217.667 226.667 218.833 226.667 220.167C226.667 221.5 228.333 222.667 230.167 222.667Z" fill="#FAC000"/>
<path d="M230.666 228.833H268.666C270.5 228.833 272 227.667 272 226.333C272 225 270.5 223.833 268.666 223.833H230.666C229 223.833 227.333 225 227.333 226.333C227.333 227.667 229 228.833 230.666 228.833Z" fill="#FAC000"/>
<path d="M231.166 235H268.166C269.833 235 271.333 233.667 271.333 232.5C271.333 231.167 269.833 229.833 268.166 229.833H231.166C229.5 229.833 228 231.167 228 232.5C228 233.667 229.5 235 231.166 235Z" fill="#FAC000"/>
<path d="M231.833 241H267.5C269.167 241 270.833 239.833 270.833 238.5C270.833 237.167 269.167 236 267.5 236H231.833C230.167 236 228.667 237.167 228.667 238.5C228.667 239.833 230.167 241 231.833 241Z" fill="#FAC000"/>
<path d="M232.333 247.167H267C268.5 247.167 270.167 246.167 270.167 244.667C270.167 243.333 268.5 242.167 267 242.167H232.333C231 242.167 229.167 243.333 229.167 244.667C229.167 246.167 231 247.167 232.333 247.167Z" fill="#FAC000"/>
<path d="M233 253.333H266.333C267.833 253.333 269.5 252.167 269.5 250.833C269.5 249.333 267.833 248.333 266.333 248.333H233C231.5 248.333 229.833 249.333 229.833 250.833C229.833 252.167 231.5 253.333 233 253.333Z" fill="#FAC000"/>
<path d="M233.5 259.5H265.833C267.166 259.5 268.833 258.333 268.833 257C268.833 255.5 267.166 254.5 265.833 254.5H233.5C232.166 254.5 230.5 255.5 230.5 257C230.5 258.333 232.166 259.5 233.5 259.5Z" fill="#FAC000"/>
<path d="M234.167 265.667H265.167C266.667 265.667 268.167 264.5 268.167 263.167C268.167 261.667 266.667 260.5 265.167 260.5H234.167C232.833 260.5 231.167 261.667 231.167 263.167C231.167 264.5 232.833 265.667 234.167 265.667Z" fill="#FAC000"/>
<path d="M234.666 271.667H264.666C266 271.667 267.666 270.667 267.666 269.167C267.666 267.833 266 266.667 264.666 266.667H234.666C233.333 266.667 231.833 267.833 231.833 269.167C231.833 270.667 233.333 271.667 234.666 271.667Z" fill="#FAC000"/>
<path d="M235.333 277.833H264.166C265.333 277.833 267 276.667 267 275.333C267 274 265.333 272.833 264.166 272.833H235.333C234 272.833 232.333 274 232.333 275.333C232.333 276.667 234 277.833 235.333 277.833Z" fill="#FAC000"/>
<path d="M235.833 284H263.5C264.833 284 266.333 282.833 266.333 281.5C266.333 280.167 264.833 279 263.5 279H235.833C234.5 279 233 280.167 233 281.5C233 282.833 234.5 284 235.833 284Z" fill="#FAC000"/>
<path d="M236.333 290.167H263C264.167 290.167 265.667 289 265.667 287.667C265.667 286.333 264.167 285.167 263 285.167H236.333C235.167 285.167 233.667 286.333 233.667 287.667C233.667 289 235.167 290.167 236.333 290.167Z" fill="#FAC000"/>
<path d="M237 296.333H262.333C263.5 296.333 265 295.167 265 293.833C265 292.333 263.5 291.167 262.333 291.167H237C235.833 291.167 234.333 292.333 234.333 293.833C234.333 295.167 235.833 296.333 237 296.333Z" fill="#FAC000"/>
<path d="M237.5 302.5H261.833C262.833 302.5 264.5 301.333 264.5 299.833C264.5 298.5 262.833 297.333 261.833 297.333H237.5C236.5 297.333 234.833 298.5 234.833 299.833C234.833 301.333 236.5 302.5 237.5 302.5Z" fill="#FAC000"/>
<path d="M238.166 308.5H261.166C262.166 308.5 263.833 307.333 263.833 306C263.833 304.667 262.166 303.5 261.166 303.5H238.166C237.166 303.5 235.5 304.667 235.5 306C235.5 307.333 237.166 308.5 238.166 308.5Z" fill="#FAC000"/>
<path d="M238.667 314.667H260.667C261.667 314.667 263.167 313.5 263.167 312.167C263.167 310.833 261.667 309.667 260.667 309.667H238.667C237.667 309.667 236.167 310.833 236.167 312.167C236.167 313.5 237.667 314.667 238.667 314.667Z" fill="#FAC000"/>
<path d="M239.333 320.833H260.166C261 320.833 262.5 319.667 262.5 318.333C262.5 317 261 315.833 260.166 315.833H239.333C238.333 315.833 236.833 317 236.833 318.333C236.833 319.667 238.333 320.833 239.333 320.833Z" fill="#FAC000"/>
<path d="M239.833 327H259.5C260.333 327 261.833 325.833 261.833 324.5C261.833 323 260.333 322 259.5 322H239.833C239 322 237.5 323 237.5 324.5C237.5 325.833 239 327 239.833 327Z" fill="#FAC000"/>
<path d="M240.333 333.167H259C259.666 333.167 261.333 332 261.333 330.5C261.333 329.167 259.666 328 259 328H240.333C239.666 328 238 329.167 238 330.5C238 332 239.666 333.167 240.333 333.167Z" fill="#FAC000"/>
<path d="M241 339.167H258.333C259.167 339.167 260.667 338 260.667 336.667C260.667 335.333 259 334.167 258.333 334.167H241C240.333 334.167 238.667 335.333 238.667 336.667C238.667 338.167 240.333 339.167 241 339.167Z" fill="#FAC000"/>
<path d="M241.5 345.333H257.833C258.5 345.333 260 344.333 260 342.833C260 341.5 258.5 340.333 257.833 340.333H241.5C241 340.333 239.333 341.5 239.333 342.833C239.333 344.333 241 345.333 241.5 345.333Z" fill="#FAC000"/>
<path d="M242.166 351.5H257.166C257.833 351.5 259.333 350.333 259.333 349C259.333 347.5 257.833 346.5 257.166 346.5H242.166C241.5 346.5 240 347.5 240 349C240 350.333 241.5 351.5 242.166 351.5Z" fill="#FAC000"/>
<path d="M223.5 179.667V180.667H275.833V179.667H223.5Z" fill="black"/>
<path d="M249.667 160.667C236.667 160.667 225.667 168.5 224.667 178.167L230.167 173.333L236.667 179.333L243.167 173.333L249.667 179.333L256.333 173.333L262.833 179.333L269.333 173.333L274.833 178.167C273.667 168.5 262.833 160.667 249.667 160.667Z" fill="#FAC000"/>
<path d="M230 175L235.333 179.833H225.666C225.333 179.833 225 179.833 224.833 179.833L230 175Z" fill="#FAC000"/>
<path d="M243.166 175L248.333 179.833H237.833L243.166 175Z" fill="#FAC000"/>
<path d="M256.166 175L261.5 179.833H251L256.166 175Z" fill="#FAC000"/>
<path d="M269.333 175L274.666 179.833C274.333 179.833 274 179.833 273.666 179.833H264L269.333 175Z" fill="#FAC000"/>
<path d="M159 144L157.833 144.333C145.333 149.667 141.5 164.833 140.333 171.833L135.833 159.5L135 160.5C132.833 163 122.333 176.333 122.667 197.833L113 184.5L112.333 185.5C112.167 185.5 102.333 198.833 109.667 223.167C99.4998 214.833 99.3332 214.833 98.9998 214.833H98.3332L98.1665 215.333C94.4998 227.833 98.8332 243 100.667 248.333L89.8332 241.833V243.333C89.8332 244.167 90.9998 261.167 97.9998 270.333L89.1665 267.833L89.3332 269C89.3332 269.167 91.3332 283.167 100.667 290.5L92.8332 288.833L92.9998 290C92.9998 290.167 95.4998 304.667 106.5 311L97.8332 310L98.1665 311.167C98.1665 311.167 99.9998 317.333 102.667 321.167C105.167 324.333 109.167 329 117.333 331.5L109.333 332.167L110 333.167C110.167 333.333 114.333 340.333 117.667 343.833C123.667 349.833 131.833 352.833 142.667 352.833C143.333 352.833 143.833 352.833 144.333 352.833H144.5L167.167 340L167.833 337.833L167.5 337.5C167.333 337.167 167.167 337 167 336.833C166.667 336.5 165.5 333.5 164.833 332V331.833C164.167 330 164 329.667 163.833 329.5C162.333 326.833 160.167 321.5 157.167 314C157 313.5 156.833 313.167 156.833 313.167C155.833 310.833 154.333 309.333 152.833 307.667C151.333 306.167 150 304.667 149.5 302.5L149.333 302.167C149.333 301.833 149.333 301.667 149.167 301.333C148.333 297.5 147.833 293.5 147.833 289.5V288.5C147.833 284.667 148.167 280.833 148.833 277.167C149 276.833 149 276.5 149.167 276C150 272 151.333 268 153 264.167C153.167 263.833 153.333 263.5 153.5 263.167C155.167 259.833 157.167 256.333 159.5 253.167C159.667 252.833 160 252.667 160.167 252.333C161.5 250.333 163 248.5 164.5 246.833C164.833 246.5 165.167 246.333 165.333 246C167.333 244 168.833 242.5 169.833 241.667C170.333 241.333 170.667 241 170.833 240.833L171.167 240.5L159 144Z" fill="black"/>
<path d="M159.167 339.833L125.167 354.167C125.167 354.167 142.833 370 165.167 361.167C173.833 357.833 187.167 341.667 174.667 330.833C170.333 327 160.5 328.167 158.5 334.667C157 339.5 162.833 347.5 170.5 342L159.167 339.833Z" fill="#FAC000"/>
<path d="M188.5 311.5L187.833 313.5C179 308.667 172.833 295.667 172.833 295.667L167 241.167C163.333 241.833 153.167 245 152.333 258.333C152.333 258.5 152.333 258.667 152.333 258.667C145.333 262.333 145.167 274 145.667 276.5C138.5 285.667 144.333 297 145.333 298.667C142.667 309 148.167 312.833 149.5 313.5C149.333 318.5 150.5 321.333 152.5 323.5C154.667 325.667 157.667 325.667 159.167 325.5C159.833 325.333 160.333 325.333 160.5 325.333L160.667 325.167L160.833 324.833C162.667 318.667 169.667 313.167 174.167 310.833C174.5 311.167 175.333 312.167 175.667 312.5C175.667 312.5 182.833 319.333 192.333 315.167L188.5 311.5Z" fill="#FAC000"/>
<path d="M165.833 339L165.167 336.333C163.667 334.333 162.167 332.333 160.833 330.333L112.667 333.667C113.5 335.333 116.833 340 119.667 343C123.333 346.5 130 350.833 141.333 350.833C142.333 350.833 143.333 350.833 144.333 350.667L165.833 339Z" fill="#FAC000"/>
<path d="M124.5 331.333L160.833 328.5C159 325.167 158.5 323 158 321.333C157.667 320.167 157.333 319 156.667 317.5L100.5 312.167C100.833 313.667 101.833 316.833 104.333 320.167C108.667 326.167 115.5 330 124.5 331.333Z" fill="#FAC000"/>
<path d="M105.833 291.5L106.5 291.833L148 301.167C147.167 297.333 146.833 293.5 146.667 289.833L102.5 273.667L91.6665 270.5C92.4998 274.667 95.6665 286.333 105.833 291.5Z" fill="#FAC000"/>
<path d="M113 311.667L152.833 315.833C151 311.5 149.5 307.167 148.5 302.833L101 292.333V292.167L95.1665 291.167C96.1665 294.667 100.167 308 113 311.667Z" fill="#FAC000"/>
<path d="M157.667 147C146.333 151.167 142.333 171.667 141.5 176L164.833 245C166.667 243.167 168.167 241.833 169 240.833L157.667 147Z" fill="#FAC000"/>
<path d="M146.667 288C146.667 284.333 147 280.667 147.833 277.167L101.167 251L92 245.333C92.1667 249.333 94.1667 264.333 101.667 271.667L146.667 288Z" fill="#FAC000"/>
<path d="M103.5 250.5L148.166 275.5C149 271.5 150.333 267.667 152 264L111 226.833L99.6665 217.333C98.8332 220.667 96.8332 231.167 103.5 250.5Z" fill="#FAC000"/>
<path d="M112.333 225.833L152.666 262.5C154.333 259.167 156.333 255.833 158.5 252.667L121.666 200H121.833L113 187.5C110.833 191.5 105.333 204.5 112.333 225.833Z" fill="#FAC000"/>
<path d="M135.166 163.667C132 167.5 123.5 180 124.5 201.167V201.333L159.5 251.333C160.833 249.5 162.166 247.833 163.666 246.333L140 176.333L135.166 163.667Z" fill="#FAC000"/>
<path d="M187.166 312.167L189.333 307.5C186.166 304.167 183.333 300.167 182 296L160 162.333L173.833 294.333C173.833 294.333 175.333 300 180.5 306C182.166 307.833 184.333 310.167 187.166 312.167Z" fill="#FAC000"/>
<path d="M234.5 355L234.166 354.833C230.166 351.333 227.666 345.5 226.833 337.5C226.5 334 226.666 330.333 226.833 327.833V326.833L227 326.5H226.833V326.167L226.666 326.5L226.333 326.333C211.166 322.333 201.166 316 195.333 311.5C193.833 310.167 192.5 308.833 191.166 307.667C190.666 307.167 190.5 306.833 190.5 306.833L189.666 306V306.167C186.5 302.667 184.166 299.167 183.166 295.667L158.166 145.667V145.5L156.833 145.667L166.833 240.5C163.333 241.167 152.333 244.5 151.666 258.167V258.333C144.666 262.167 144.5 273.333 144.833 276.333C137.666 285.833 143.666 297.167 144.5 298.667C142.333 308.167 146.5 312.333 148.5 313.667C148.5 313.833 148.5 313.833 148.666 313.833C148.666 313.833 148.666 313.833 148.833 314C148.666 318.5 149.5 321.5 152 323.833C153.833 325.833 156.166 326.167 157.833 326.167C158.333 326.167 158.666 326.167 159.166 326.167C159.666 326 160 326 160.5 325.833L161.166 325.667L161.333 325C163.166 318.833 170 313.667 174 311.667C174 311.833 174.166 312 174.333 312.167C174.333 312.333 174.5 312.333 174.666 312.333C174.833 312.667 175 312.833 175.166 312.833C175.333 313 179.5 317 185.833 317C186.5 318.5 189 323.333 195.666 327C191.166 334.833 191 343.667 195.333 352.167C198.666 359 203.5 363.5 204.5 364.333L204.666 364.5H235L234.5 355ZM157.833 324.833C156.5 324.833 154.5 324.5 152.833 323C150.833 321 150 318.333 150.166 314.333C150.666 314.5 151.333 314.5 152.166 314.5C153.333 314.5 154.333 314.333 154.666 314.333C155.666 314.167 158.666 313.5 160.666 312C161.833 314.167 163.666 315.667 165.5 316.167C162.666 319 160.833 321.833 160 324.667C159.666 324.667 159.166 324.833 159 324.833C158.666 324.833 158.166 324.833 157.833 324.833ZM157.333 295.333C157.833 297.667 159 299.5 160.5 301C159 301.333 157.5 301.5 155.833 301.5C151.166 301.5 147.166 300.167 146 298.333C145.833 298.167 145.833 298.167 145.666 298C145.166 297.167 143.666 294.333 143 290.667C142.166 286 142.833 281.833 145.166 278.167C146.166 283.833 150.833 288.167 156.5 288.667C156.333 290.833 156.666 293.167 157.333 295.333ZM166.166 285C165.166 283 164.333 280.5 164 277.667C163.666 275 165.666 266.833 169.5 265L172 289C169.5 288.833 167.333 287.333 166.166 285ZM172.166 302.5C171.166 302.667 170.166 302.833 169.166 302.833C164.166 302.833 160.5 300.333 158.833 296C156.833 290.667 157.333 284 163 281.333C163.166 281.333 163.166 281.333 163.333 281.333C164.333 285.667 167.5 290.167 172.166 290.5L172.666 295.667L172.833 295.5V295.667C172.833 295.667 173 296 173.166 296.5C173.333 296.667 173.5 297 173.666 297.333C173 299 172.5 300.833 172.166 302.5ZM161 244C163.5 242.5 165.833 242 167 241.667L169.166 263.333C165.833 265.5 164.333 269.333 163.166 272.667C157.166 271.333 152.833 265.667 153 259V258.333C153.333 251.833 156 247 161 244ZM162.833 279.167C162.833 279.333 162.833 279.333 162.833 279.333C163 279.667 163 280 162.666 280C159.333 281.5 157 284.333 156.666 287.333C151.166 286.667 146.833 282.333 146.166 276.667V276.5C146.166 276.167 146.166 275.833 146.166 275.5C146.166 275.333 146.166 275.333 146 275.167C145.833 271.333 146.833 263.333 151.666 259.833C151.833 267 156.333 272.833 162.833 274.167C162.666 275.667 162.666 277.667 162.833 279.167ZM145.666 300C147.5 301.833 151.166 302.833 155.666 302.833C156.833 302.833 158.333 302.833 159.666 302.667C158.833 305 159 308.167 160.166 310.833C158.666 311.833 156.666 312.667 154.666 313C154 313.167 153.166 313.333 152.166 313.333C151 313.333 150.166 313 149.166 312.667V312.5C147.5 311.5 144 308 145.666 300ZM161 302.833C161.166 302.667 161.5 302 161.833 302C164 303.333 166.5 304.167 169.333 304.167C170.166 304.167 171.166 304 172.166 303.833C172 306.333 172.333 308.667 173.333 310.5C172.166 311.167 169.5 312.667 166.666 315.167C166.5 315.167 166.5 315 166.333 315C164.5 314.667 162.833 313.167 161.666 311.167C160.333 308.5 160 305.167 161 302.833ZM174 294.333L160.666 167L181.833 296C183 299.833 185.5 303.667 189.166 307.5L187.166 312C184.666 310.167 182.5 308 180.5 305.833C175.5 300 174 294.333 174 294.333ZM174.5 299.167C175.833 301.833 177.666 304.333 179.5 306.667C181.5 309 184 311.167 186.666 313.167L185.5 315.833C180 315.5 176.166 312 176 312C175.833 311.833 175.333 311.167 175.166 311C172.833 307.167 173.333 301.833 174.5 299.167Z" fill="black"/>
<path d="M225.333 327.333C224.667 328.333 222.167 330.5 215 330.5C212.667 330.5 210.167 330.333 207.333 329.833C194.333 327.833 188.167 320 186.667 316.167L190 308.333C192.667 310.833 203.667 321.333 225.333 327.333Z" fill="#F9BF00"/>
<path d="M196.333 351.667C192.333 343.333 192.333 335.333 196.5 327.833C199.5 329.167 203.166 330.333 207.166 331C210.166 331.5 213 331.833 215.333 331.833C220.5 331.833 223.666 330.5 225.5 329C225.333 331.333 225.333 334.5 225.666 337.5C226.5 345.667 229 351.833 233.333 355.5L233.666 363.167H205.166C204 362.167 199.5 357.833 196.333 351.667Z" fill="#FAC000"/>
<path d="M124.667 354.5L124 353.833L158.333 339.5C157.5 337.833 157.333 336 157.833 334.5C158.833 331.5 161.333 329.333 164.667 328.5C168.5 327.5 172.667 328.167 175.167 330.333C179.333 334.167 181.167 338.833 180.167 344C178.667 351.833 171.5 359.5 165.5 361.833C160.667 363.667 156 364.5 151.667 364.5C136 364.5 124.833 354.667 124.667 354.5ZM165 329.667C162 330.5 159.833 332.333 159 334.833C158.667 336.167 158.833 337.833 159.5 339.333C159.667 339.333 159.667 339.5 159.833 339.5C159.833 339.667 159.833 339.667 159.833 339.667C160.333 340.667 161.167 341.5 162 342.167C164.333 343.833 167.167 343.667 170.167 341.5C170.333 341.333 170.833 341.5 171 341.667C171.167 342 171.167 342.333 170.833 342.5C167.5 344.833 164.167 345.167 161.333 343.167C160.333 342.5 159.5 341.667 158.833 340.5L126.333 354.333C129.833 357 145.833 368.167 165 360.667C170.667 358.5 177.5 351.167 179 343.833C179.833 339 178.333 334.667 174.333 331.333C172.833 330 170.5 329.167 168.167 329.167C167.167 329.167 166 329.333 165 329.667Z" fill="#332C2B"/>
<path d="M342.333 144L343.333 144.333C355.833 149.667 359.667 164.833 360.833 171.833L365.333 159.5L366.333 160.5C368.333 163 378.833 176.333 378.667 197.833L388.333 184.5L389 185.5C389 185.5 398.833 198.833 391.667 223.167C401.667 214.833 401.833 214.833 402.167 214.833H402.833L403 215.333C406.667 227.833 402.333 243 400.5 248.333L411.5 241.833L411.333 243.333C411.333 244.167 410.167 261.167 403.167 270.333L412 267.833L411.833 269C411.833 269.167 409.833 283.167 400.5 290.5L408.333 288.833L408.167 290C408.167 290.167 405.667 304.667 394.667 311L403.333 310L403 311.167C403 311.167 401.333 317.333 398.5 321.167C396 324.333 392 329 383.833 331.5L391.833 332.167L391.167 333.167C391.167 333.333 386.833 340.333 383.5 343.833C377.5 349.833 369.333 352.833 358.5 352.833C358 352.833 357.5 352.833 357 352.833H356.833L334 340L333.333 337.833L333.667 337.5C334 337.167 334.167 337 334.333 336.833C334.5 336.5 335.667 333.5 336.333 332V331.833C337 330 337.333 329.667 337.333 329.5C338.833 326.833 341.167 321.5 344.167 314C344.333 313.5 344.333 313.167 344.5 313.167C345.5 310.833 347 309.333 348.333 307.667C349.833 306.167 351.167 304.667 351.833 302.5V302.167C351.833 301.833 352 301.667 352 301.333C352.833 297.5 353.333 293.5 353.5 289.5V288.5C353.5 284.667 353 280.833 352.333 277.167C352.333 276.833 352.167 276.5 352.167 276C351.167 272 349.833 268 348.167 264.167C348 263.833 347.833 263.5 347.667 263.167C346 259.833 344 256.333 341.667 253.167C341.5 252.833 341.333 252.667 341 252.333C339.667 250.333 338.167 248.5 336.667 246.833C336.333 246.5 336.167 246.333 335.833 246C334 244 332.333 242.5 331.333 241.667C331 241.333 330.667 241 330.333 240.833L330 240.5L342.333 144Z" fill="black"/>
<path d="M342 339.833L376 354.167C376 354.167 358.333 370 336 361.167C327.333 357.833 314 341.667 326.5 330.833C330.833 327 340.667 328.167 342.833 334.667C344.333 339.5 338.333 347.5 330.667 342L342 339.833Z" fill="#FAC000"/>
<path d="M312.666 311.5L313.5 313.5C322.333 308.667 328.333 295.667 328.333 295.667L334.166 241.167C338 241.833 348.166 245 348.833 258.333C348.833 258.5 348.833 258.667 348.833 258.667C356 262.333 356 274 355.5 276.5C362.833 285.667 357 297 355.833 298.667C358.5 309 353.166 312.833 351.666 313.5C352 318.5 350.833 321.333 348.666 323.5C346.5 325.667 343.666 325.667 342 325.5C341.333 325.333 340.833 325.333 340.833 325.333L340.5 325.167V324.833C338.666 318.667 331.5 313.167 327 310.833C326.666 311.167 325.833 312.167 325.5 312.5C325.5 312.5 318.333 319.333 308.833 315.167L312.666 311.5Z" fill="#FAC000"/>
<path d="M335.333 339L336 336.333C337.5 334.333 339 332.333 340.333 330.333L388.5 333.667C387.666 335.333 384.333 340 381.5 343C377.833 346.5 371.333 350.833 360 350.833C359 350.833 358 350.833 357 350.667L335.333 339Z" fill="#FAC000"/>
<path d="M376.666 331.333L340.333 328.5C342.166 325.167 342.833 323 343.333 321.333C343.666 320.167 344 319 344.5 317.5L400.833 312.167C400.333 313.667 399.333 316.833 396.833 320.167C392.5 326.167 385.666 330 376.666 331.333Z" fill="#FAC000"/>
<path d="M395.333 291.5L394.667 291.833L353.167 301.167C354 297.333 354.5 293.5 354.5 289.833L398.833 273.667L409.667 270.5C408.833 274.667 405.667 286.333 395.333 291.5Z" fill="#FAC000"/>
<path d="M388.166 311.667L348.333 315.833C350.333 311.5 351.833 307.167 352.833 302.833L400.333 292.333V292.167L406 291.167C405.166 294.667 401.166 308 388.166 311.667Z" fill="#FAC000"/>
<path d="M343.5 147C354.833 151.167 359 171.667 359.667 176L336.333 245C334.667 243.167 333.167 241.833 332.167 240.833L343.5 147Z" fill="#FAC000"/>
<path d="M354.5 288C354.5 284.333 354.167 280.667 353.5 277.167L400 251L409.167 245.333C409 249.333 407 264.333 399.5 271.667L354.5 288Z" fill="#FAC000"/>
<path d="M397.833 250.5L353.167 275.5C352.167 271.5 350.833 267.667 349.167 264L390.167 226.833L401.5 217.333C402.5 220.667 404.5 231.167 397.833 250.5Z" fill="#FAC000"/>
<path d="M389 225.833L348.5 262.5C346.833 259.167 345 255.833 342.667 252.667L379.5 200H379.333L388.333 187.5C390.5 191.5 395.833 204.5 389 225.833Z" fill="#FAC000"/>
<path d="M366 163.667C369.167 167.5 377.667 180 376.667 201.167V201.333L341.667 251.333C340.333 249.5 339 247.833 337.5 246.333L361.167 176.333L366 163.667Z" fill="#FAC000"/>
<path d="M314 312.167L312 307.5C315.167 304.167 317.833 300.167 319.333 296L341.167 162.333L327.333 294.333C327.333 294.333 325.833 300 320.667 306C319 307.833 316.833 310.167 314 312.167Z" fill="#FAC000"/>
<path d="M266.167 364.5H296.5L296.667 364.333C297.667 363.5 302.5 359 305.833 352.167C310.167 343.667 310.167 334.833 305.667 327C312.167 323.333 314.667 318.5 315.333 317C321.667 317 325.833 313 326.167 312.833C326.167 312.833 326.333 312.667 326.5 312.333C326.667 312.333 326.833 312.333 326.833 312.167C327 312 327.167 311.833 327.333 311.667C331.167 313.667 338.167 318.833 339.833 325L340 325.667L340.667 325.833C341.167 326 341.667 326 342.167 326.167C342.5 326.167 343 326.167 343.333 326.167C345 326.167 347.333 325.833 349.333 323.833C351.667 321.5 352.667 318.5 352.5 314C352.5 313.833 352.5 313.833 352.5 313.833C352.667 313.833 352.667 313.833 352.833 313.667C354.667 312.333 359 308.167 356.667 298.667C357.5 297.167 363.5 285.833 356.333 276.333C356.667 273.333 356.5 262.167 349.667 258.333V258.167C348.833 244.5 337.833 241.167 334.333 240.5L344.333 145.667L343 145.5V145.667L318.167 295.667C317 299.167 314.833 302.667 311.5 306.167V306L310.833 306.833C310.833 306.833 310.5 307.167 310 307.667C308.833 308.833 307.333 310.167 305.833 311.5C300.167 316 290 322.333 274.833 326.333L274.5 326.5L274.333 326.167V326.5H274.167L274.333 326.833L274.5 327.833C274.667 330.333 274.667 334 274.333 337.5C273.5 345.5 271 351.333 267 354.833L266.833 355L266.167 364.5ZM342.167 324.833C342 324.833 341.667 324.667 341.167 324.667C340.333 321.833 338.5 319 335.667 316.167C337.667 315.667 339.333 314.167 340.5 312C342.5 313.5 345.667 314.167 346.5 314.333C346.833 314.333 347.833 314.5 349 314.5C349.833 314.5 350.5 314.5 351.167 314.333C351.167 318.333 350.333 321 348.333 323C346.667 324.5 344.667 324.833 343.333 324.833C343 324.833 342.667 324.833 342.167 324.833ZM344.667 288.667C350.333 288.167 355 283.833 356.167 278.167C358.333 281.833 359 286 358.167 290.667C357.5 294.333 356 297.167 355.5 298C355.5 298.167 355.333 298.167 355.167 298.333C354 300.167 350 301.5 345.5 301.5C343.833 301.5 342.167 301.333 340.667 301C342.167 299.5 343.333 297.667 344 295.333C344.5 293.167 344.833 290.833 344.667 288.667ZM329.167 289L331.833 265C335.5 266.833 337.5 275 337.167 277.667C336.833 280.5 336.167 283 335.167 285C333.833 287.333 331.667 288.833 329.167 289ZM327.667 297.333C327.833 297 327.833 296.667 328 296.5C328.167 296 328.333 295.667 328.5 295.667V295.5V295.667L329.167 290.5C333.667 290.167 336.833 285.667 338 281.333H338.167C343.833 284 344.333 290.667 342.333 296C340.667 300.333 337 302.833 332 302.833C331 302.833 330 302.667 329 302.5C328.667 300.833 328.333 299 327.667 297.333ZM348.333 258.333V259C348.333 265.667 344 271.333 338 272.667C337 269.333 335.333 265.5 332 263.333L334.333 241.667C335.333 242 337.667 242.5 340.167 244C345.167 247 347.833 251.833 348.333 258.333ZM338.333 274.167C344.833 272.833 349.333 267 349.667 259.833C354.5 263.333 355.333 271.333 355.167 275.167C355.167 275.333 355 275.333 355 275.5C355 275.833 355 276.167 355 276.5V276.667C354.333 282.333 350.167 286.667 344.5 287.333C344.167 284.333 341.833 281.5 338.5 280C338.333 280 338.333 279.667 338.333 279.333C338.333 279.333 338.333 279.333 338.333 279.167C338.667 277.667 338.5 275.667 338.333 274.167ZM352 312.5V312.667C351.167 313 350.167 313.333 349 313.333C348.167 313.333 347.167 313.167 346.667 313C344.5 312.667 342.667 311.833 341.167 310.833C342.333 308.167 342.333 305 341.5 302.667C343 302.833 344.333 302.833 345.5 302.833C350 302.833 353.667 301.833 355.5 300C357.167 308 353.667 311.5 352 312.5ZM339.5 311.167C338.333 313.167 336.833 314.667 334.833 315C334.667 315 334.667 315.167 334.5 315.167C331.667 312.667 329 311.167 327.833 310.5C328.833 308.667 329.167 306.333 329.167 303.833C330 304 331 304.167 332 304.167C334.667 304.167 337.333 303.333 339.333 302C339.833 302 340 302.667 340.167 302.833C341.167 305.167 340.833 308.5 339.5 311.167ZM320.667 305.833C318.667 308 316.5 310.167 314 312L312.167 307.5C315.667 303.667 318.167 299.833 319.333 296L340.667 167L327.333 294.333C327.167 294.333 325.667 300 320.667 305.833ZM326 311C325.833 311.167 325.333 311.833 325.167 312C325.167 312 321.333 315.5 315.667 315.833L314.5 313.167C317.333 311.167 319.667 309 321.667 306.667C323.667 304.333 325.333 301.833 326.667 299.167C327.833 301.833 328.333 307.167 326 311Z" fill="black"/>
<path d="M275.833 327.333C276.666 328.333 279.166 330.5 286.166 330.5C288.5 330.5 291 330.333 293.833 329.833C306.833 327.833 313 320 314.5 316.167L311.166 308.333C308.666 310.833 297.5 321.333 275.833 327.333Z" fill="#F9BF00"/>
<path d="M304.833 351.667C309 343.333 309 335.333 304.667 327.833C301.667 329.167 298 330.333 294.167 331C291 331.5 288.333 331.833 285.833 331.833C280.667 331.833 277.5 330.5 275.667 329C275.833 331.333 275.833 334.5 275.5 337.5C274.667 345.667 272.167 351.833 268 355.5L267.5 363.167H296C297.167 362.167 301.667 357.833 304.833 351.667Z" fill="#FAC000"/>
<path d="M349.5 364.5C345.333 364.5 340.667 363.667 335.667 361.833C329.833 359.5 322.5 351.833 321 344C320 338.833 321.833 334.167 326 330.333C328.5 328.167 332.667 327.5 336.5 328.5C340 329.333 342.5 331.5 343.333 334.5C343.833 336 343.667 337.833 343 339.5L377.167 353.833L376.5 354.5C376.333 354.667 365.167 364.5 349.5 364.5ZM333.167 329.167C330.667 329.167 328.333 330 326.833 331.333C323 334.667 321.333 339 322.333 343.833C323.667 351.167 330.5 358.5 336.167 360.667C355.5 368.167 371.333 357 374.833 354.333L342.333 340.5C341.667 341.667 340.833 342.5 340 343.167C337.167 345.167 333.667 344.833 330.333 342.5C330 342.333 330 342 330.167 341.667C330.5 341.5 330.833 341.333 331.167 341.5C334 343.667 336.833 343.833 339.167 342.167C340.167 341.5 340.833 340.667 341.333 339.667C341.333 339.667 341.5 339.667 341.5 339.5C341.5 339.5 341.5 339.333 341.667 339.333C342.333 337.833 342.667 336.167 342.167 334.833C341.333 332.333 339.167 330.5 336.167 329.667C335.167 329.333 334.167 329.167 333.167 329.167Z" fill="black"/>
<path d="M354.333 379.667C351.666 374.333 345 370.333 344.166 370.333H343.5L342.833 371.5L343.166 372C345.333 376 345.166 377.833 344.666 378.667C344.5 379.333 344 379.667 343.666 379.833C343.166 379.667 342.666 379.5 342.166 379.333C339.333 378.333 336.166 377.333 332.5 376.5C324.833 374.5 319.166 373.5 316.5 373C312 372.167 307.166 371.333 302 370.667C302.5 370 302.833 369.167 303 368.333C303.333 367 303 365.5 302.166 364.333C301.333 363.167 300 362.333 298.666 362.167C283.5 359.333 267.333 358 250.5 358C222.166 358 201.5 362 200.666 362.167C197.666 362.667 195.666 365.5 196.333 368.5C196.5 369.333 196.833 370 197.333 370.667C191.333 371.5 185.5 372.5 180.333 373.5C177.666 374 174.833 374.5 172 375.167C169 375.833 165.5 377.167 162.333 378.167C159.833 379 157.166 380 156 380H155.833C155.833 380 155 379.667 154.666 378.833C154.333 378 154 376 156.166 372L156.5 371.5L155.833 370.333H155.333C154.333 370.333 147.5 374.5 145 380C143.166 383.667 143.666 387.333 146.666 390.667C147.333 391.333 148 392 148.666 392.5C160.333 402 155.166 408.333 155 408.667L154.666 408.833V409.167C154.666 409.5 154.666 411.833 156.5 413.667C157.666 415 159.5 415.667 161.666 415.667C163.833 415.667 166.333 415 169.333 413.833C171 413.167 172.5 412.667 173.833 412.167C182 409 185 407.833 192.833 406.833C213.833 404.5 237.5 404 249.666 404C260.166 404 287 404.333 309.333 407.167C315.166 408.167 318.5 409.333 325.5 412.167L326 412.333C327.166 412.833 328.5 413.333 330 413.833C336.166 416.167 340.5 416.167 342.833 413.667C344.833 411.833 344.666 409.333 344.666 409.167V408.833L344.333 408.5C344.333 408.5 339.833 402.667 350.666 392.5C351.166 392.167 352.666 390.5 353 390.167C355.666 387 356.166 383.333 354.333 379.667Z" fill="black"/>
<path d="M351.666 389.167C353.666 386.833 354.166 384.333 353.333 381.833C352.166 377.667 347.666 374.167 345.333 372.667C346.666 375.5 347 377.667 346.166 379.333C345.5 381 344 381.5 343.833 381.5H343.666C343 381.167 342.333 381 341.666 380.833C338.833 379.833 335.666 379 332.166 378C324.5 376 318.833 375 316.333 374.667C295 370.667 269.5 368.333 249.666 368.333C229 368.333 202 371 180.5 375C178 375.5 175.166 376.167 172.333 376.833C169.5 377.5 166 378.667 163 379.667C159.666 380.833 157.166 381.667 156 381.667C155.833 381.667 155.5 381.667 155.333 381.5C154.833 381.333 153.666 380.833 153.166 379.5C152.333 377.833 152.666 375.5 154 372.833C151.666 374.333 147.166 377.833 145.833 382C145.166 384.667 145.833 387.167 148 389.667C148.5 390.333 149.166 390.833 149.666 391.333C161.5 401 157.166 408.333 156.333 409.5C156.333 410 156.5 411.5 157.666 412.667C159.5 414.5 163.333 414.5 168.833 412.333C170.5 411.833 171.833 411.167 173.166 410.667C181.5 407.5 184.5 406.333 192.5 405.333C213.666 402.833 237.333 402.5 249.666 402.5C260.166 402.5 287 402.833 309.5 405.667C315.666 406.5 319 407.833 326.166 410.667C327.5 411.167 329 411.667 330.666 412.333C333.333 413.333 335.666 414 337.666 414C339.5 414 340.833 413.5 341.666 412.5C342.833 411.333 343 409.833 343 409.5C342.166 408.333 338.333 401.833 349.666 391.333C350.166 390.833 351.5 389.333 351.666 389.167Z" fill="white"/>
<path d="M167.333 388.167L168.666 394.5L163.333 389.167L161 389.667L163.333 400L165.666 399.5L164.166 393.333L169.5 398.667L172 398.167L169.666 387.833L167.333 388.167Z" fill="black"/>
<path d="M177.833 386.167L175.333 386.667L173.166 398L175.833 397.5L176.166 395L180.166 394.333L181.499 396.5L184.166 396L177.999 386.333L177.833 386.167ZM178.999 392.5L176.666 392.833L177.166 389.5L178.999 392.5Z" fill="black"/>
<path d="M189.333 389.333L189.666 391.333L192.166 391L192.333 392C191.999 392.333 191.666 392.5 191.333 392.667C190.833 393 190.499 393.167 189.999 393.167C189.166 393.333 188.499 393.167 187.833 392.667C187.333 392.167 186.833 391.333 186.666 390.167C186.499 389 186.666 388.167 187.166 387.5C187.499 387 188.166 386.667 188.999 386.5C189.666 386.333 190.166 386.5 190.499 386.667C190.999 386.833 191.333 387.167 191.499 387.667V387.833L193.999 387L193.833 386.833C193.499 385.833 192.833 385.167 191.999 384.667C191.166 384.333 189.999 384.167 188.666 384.333C187.666 384.5 186.833 384.833 186.166 385.167C185.333 385.833 184.666 386.667 184.333 387.5C183.999 388.5 183.999 389.5 184.166 390.5C184.333 391.5 184.666 392.5 185.166 393.333C185.833 394.167 186.499 394.667 187.499 395C187.999 395.167 188.666 395.333 189.499 395.333C189.833 395.333 190.166 395.333 190.499 395.333C191.499 395.167 192.333 394.833 193.166 394.333C193.833 394 194.499 393.5 194.999 393V392.833L194.333 388.5L189.333 389.333Z" fill="black"/>
<path d="M201.666 382.833L198.999 383.167L196.166 394.333L198.833 394L199.333 391.5L203.333 391.167L204.499 393.333L207.333 393L201.666 383V382.833ZM202.333 389.167L199.833 389.333L200.666 386.167L202.333 389.167Z" fill="black"/>
<path d="M222 381L218.5 392L216.833 389.833C216.166 389 215.833 388.5 215.5 388.167C215.166 388 214.833 387.833 214.666 387.667C215.333 387.5 215.833 387 216.166 386.5C216.666 386 216.833 385.333 216.833 384.5C216.666 383.833 216.5 383.333 216.166 382.833C215.833 382.333 215.333 382 214.666 381.833C214.166 381.667 213.333 381.667 212.166 381.833L207.5 382.167L208.5 392.833L211 392.667L210.5 388.333H210.833C211.333 388.333 211.666 388.333 211.833 388.333C212 388.333 212.333 388.5 212.5 388.667C212.666 388.833 213 389.333 213.666 390L215.5 392.333L218.5 392L221.166 391.833L221.833 389.333L225.833 389.167L227 391.5L229.666 391.333L224.666 380.833L222 381ZM224.833 387.167L222.5 387.333L223.5 384L224.833 387.167ZM214.166 385.5C214 385.667 213.833 385.833 213.666 386C213.5 386 213 386.167 211.833 386.167L210.333 386.333L210.166 384.167L211.666 384C212.666 383.833 213 383.833 213.166 383.833C213.5 383.833 213.666 384 213.833 384.167C214.166 384.333 214.166 384.5 214.166 384.833C214.333 385.167 214.166 385.333 214.166 385.5Z" fill="black"/>
<path d="M242.666 381.333C242.166 380.833 241.499 380.5 240.833 380.333C240.499 380.333 239.666 380.167 238.833 380.167L234.666 380.333L234.999 390.833V391H239.166C239.999 391 240.666 390.833 241.166 390.667C241.833 390.5 242.333 390.167 242.833 389.833C243.333 389.333 243.666 388.667 243.833 387.833C244.166 387.167 244.166 386.5 244.166 385.5C244.166 384.5 243.999 383.667 243.666 383C243.499 382.333 243.166 381.833 242.666 381.333ZM237.499 388.833L237.333 382.333H237.999C238.999 382.333 239.499 382.333 239.833 382.5C240.166 382.5 240.499 382.667 240.666 382.833C240.999 383 241.166 383.333 241.333 383.667C241.499 384.167 241.499 384.833 241.499 385.5C241.666 386.333 241.499 387 241.333 387.333C241.333 387.833 241.166 388.167 240.999 388.333C240.666 388.5 240.499 388.667 240.166 388.667C239.833 388.833 239.499 388.833 238.833 388.833H237.499Z" fill="black"/>
<path d="M249.333 380L245.166 390.833H247.833L248.666 388.5H252.666L253.666 390.833H256.333L251.999 380H249.333ZM251.833 386.333H249.499L250.666 383.167L251.833 386.333Z" fill="black"/>
<path d="M264.166 386.667L260.333 380.333L260.166 380.167H257.833L257.5 390.833H259.833L260 384.5L263.833 391H266.333L266.666 380.333H264.333L264.166 386.667Z" fill="black"/>
<path d="M274.999 380.667H272.499L267.666 391.167H270.333L271.333 389L275.333 389.167L275.999 391.5L278.833 391.667L274.999 380.833V380.667ZM274.499 387L272.166 386.833L273.499 383.833L274.499 387Z" fill="black"/>
<path d="M302.333 383.167L299.666 382.833L294.166 393L292.833 390.667C292.499 389.667 292.166 389.167 291.833 388.833C291.666 388.5 291.333 388.333 291.166 388C291.833 388 292.499 387.667 292.999 387.333C293.499 386.833 293.833 386.167 293.833 385.333C293.999 384.667 293.833 384.167 293.499 383.5C293.333 383 292.833 382.667 292.333 382.333C291.833 382.167 290.999 382 289.833 381.833L285.166 381.5L284.166 392V392.167L286.666 392.333L286.999 388H287.333C287.833 388.167 288.166 388.167 288.333 388.167C288.499 388.333 288.666 388.5 288.833 388.667C288.999 388.833 289.333 389.5 289.833 390.333L291.166 392.833L294.166 393L296.833 393.333L297.999 391.167L301.999 391.667L302.499 394L305.333 394.333L302.333 383.333V383.167ZM287.499 383.833H288.999C289.999 384 290.333 384 290.499 384C290.833 384.167 290.999 384.333 291.166 384.5C291.333 384.667 291.333 385 291.333 385.167C291.333 385.5 291.166 385.667 290.999 385.833C290.833 386 290.666 386.167 290.499 386.167C290.499 386.167 290.333 386.167 289.999 386.167C289.666 386.167 289.166 386.167 288.666 386.167L287.166 386L287.499 383.833ZM301.333 389.5L298.999 389.167L300.499 386.167L301.333 389.5Z" fill="black"/>
<path d="M318 385.5L314.666 385L310 388.667L310.666 384.333L308.166 384L306.5 394.5L309 395L309.5 391.833L311.166 390.5L313.333 395.667L316.5 396.167L313.166 389L318 385.5Z" fill="black"/>
<path d="M325 393.5C324.666 394.333 324.333 394.667 323.833 395C323.5 395.167 323 395.333 322.5 395.167C321.833 395 321.333 394.667 321 394.167C320.5 393.5 320.5 392.667 320.833 391.333C321 390.167 321.333 389.333 322 389C322.5 388.5 323.166 388.5 323.833 388.5C324.333 388.667 324.833 388.833 325 389.167C325.333 389.5 325.5 390 325.5 390.5V390.667L328.166 390.5V390.333C328 389.5 327.833 388.833 327.333 388.167C326.666 387.333 325.666 386.667 324.333 386.5C322.833 386.167 321.5 386.5 320.333 387.167C319.333 388 318.5 389.333 318.166 391C317.833 392.667 318 394.167 318.833 395.167C319.166 395.667 319.5 396 319.833 396.333L319.333 397C319.666 397 320 397 320.333 397.167C320.666 397.167 320.833 397.333 321 397.5C321 397.667 321 397.833 321 398C321 398.167 320.833 398.167 320.666 398.333C320.333 398.333 320 398.333 319.666 398.167C319.333 398 318.833 397.833 318.333 397.667L318.166 398.5C318.333 398.667 318.833 398.833 319.333 399C320.166 399.333 320.833 399.333 321.5 399.167C321.833 399 322.166 398.833 322.333 398.5C322.5 398 322.333 397.667 322.166 397.333C322.5 397.333 322.833 397.5 323.166 397.5C324 397.5 324.5 397.333 325.166 397C326 396.667 326.666 395.833 327.333 394.667L325.166 393.333L325 393.5Z" fill="black"/>
<path d="M336.5 389.167L334 388.5L327.5 397.833L327.333 398.167L330 398.667L331.5 396.5L335.333 397.5L335.666 400L338.333 400.5L336.5 389.167ZM335 395.167L332.666 394.667L334.5 391.833L335 395.167Z" fill="black"/>
<path d="M298.333 363.667C283.333 360.833 267.167 359.5 250.5 359.5C222.333 359.5 201.833 363.5 201 363.667C198.833 364 197.5 366 198 368.167C198.333 370.167 200.833 370.833 203 370.5C203.833 370.333 223.333 367.167 250.5 367.167C266.833 367.167 297.167 370.667 297.5 370.667C299.333 370.667 301 369.833 301.5 368C301.667 367 301.333 366 300.833 365.167C300.167 364.333 299.333 363.833 298.333 363.667Z" fill="#FAC000"/>
<path d="M199 198.5C198.667 194.833 198.667 191.667 200.667 188.333C202.667 184.833 209 181.833 209 177.333C209.334 182.5 211.834 188 208.167 192.833C206.834 194.5 205 196.167 203.167 197C202.167 197.333 199 198.5 199 198.5Z" fill="#FAC000"/>
<path d="M199 199H198.833C198.667 198.833 198.5 198.833 198.5 198.667C198.167 195 198 191.667 200.167 188.167C201 186.667 202.333 185.5 203.833 184.167C206.167 182 208.5 180 208.5 177.333C208.5 177 208.667 176.833 209 176.833C209.333 176.833 209.5 177 209.5 177.167C209.5 178.667 209.833 180.167 210 181.5C210.667 185.333 211.333 189.5 208.667 193C207.167 195 205.167 196.667 203.333 197.333C202.333 197.833 199.333 199 199.167 199C199.167 199 199.167 199 199 199ZM208.833 180C207.833 181.833 206.167 183.333 204.5 184.833C203.167 186.167 201.833 187.333 201 188.5C199.167 191.667 199.167 194.667 199.5 197.833C200.5 197.5 202.167 196.833 203 196.5C204.667 195.833 206.333 194.333 207.833 192.5C210.333 189.167 209.667 185.5 209 181.667C209 181.167 208.833 180.5 208.833 180Z" fill="black"/>
<path d="M197.167 180C196.667 176.333 196.667 173.167 198.667 169.833C200.667 166.333 207 163.333 207 158.667C207.334 164 209.834 169.5 206.167 174.333C205 176 203.167 177.667 201.167 178.5C200.167 178.833 197.167 180 197.167 180Z" fill="#FAC000"/>
<path d="M197.167 180.5C197 180.5 196.833 180.5 196.833 180.5C196.667 180.333 196.667 180.167 196.667 180C196.167 176.5 196 173.167 198.167 169.5C199 168.167 200.5 167 201.833 165.667C204.167 163.5 206.5 161.333 206.5 158.667C206.5 158.5 206.833 158.167 207 158.167C207.333 158.167 207.5 158.5 207.5 158.667C207.667 160.167 207.833 161.5 208.167 163C208.833 166.833 209.5 170.833 206.667 174.5C205.167 176.5 203.167 178.167 201.333 178.833C200.333 179.333 197.333 180.5 197.333 180.5C197.167 180.5 197.167 180.5 197.167 180.5ZM206.833 161.5C206 163.333 204.167 164.833 202.5 166.333C201.167 167.5 199.833 168.833 199 170C197.167 173.167 197.167 176.167 197.5 179.333C198.5 179 200.333 178.333 201 178C202.667 177.333 204.5 175.833 205.833 174C208.333 170.667 207.833 167 207.167 163.167C207 162.667 207 162 206.833 161.5Z" fill="black"/>
<path d="M200.166 218.333C199.666 214.667 199.666 211.5 201.666 208.167C203.833 204.667 210 201.667 210.166 197C210.333 202.333 213 207.833 209.333 212.667C208 214.333 206.166 216 204.166 216.833C203.166 217.167 200.166 218.333 200.166 218.333Z" fill="#FAC000"/>
<path d="M200.166 218.833C200 218.833 200 218.833 199.833 218.833C199.666 218.667 199.666 218.667 199.666 218.5C199.166 214.833 199.166 211.5 201.166 207.833C202 206.5 203.5 205.333 204.833 204C207.166 201.833 209.5 199.667 209.5 197C209.5 196.833 209.833 196.667 210 196.667C210.333 196.667 210.5 196.833 210.5 197C210.666 198.5 210.833 200 211.166 201.333C211.833 205.167 212.5 209.333 209.666 212.833C208.166 214.833 206.166 216.5 204.333 217.167C203.333 217.667 200.5 218.833 200.333 218.833C200.166 218.833 200.166 218.833 200.166 218.833ZM209.833 199.833C209 201.667 207.333 203.167 205.666 204.667C204.166 206 202.833 207.167 202.166 208.333C200.166 211.5 200.166 214.5 200.5 217.667C201.5 217.333 203.333 216.667 204 216.333C205.666 215.667 207.5 214.167 208.833 212.333C211.333 209 210.833 205.333 210.166 201.5C210 201 210 200.333 209.833 199.833Z" fill="black"/>
<path d="M202.334 238.333C202 234.667 201.834 231.5 203.834 228.167C206 224.667 212.334 221.667 212.334 217.167C212.667 222.333 215.167 227.833 211.5 232.667C210.167 234.333 208.334 236 206.5 236.833C205.5 237.167 202.334 238.333 202.334 238.333Z" fill="#FAC000"/>
<path d="M202.334 238.833H202.167C202 238.667 201.834 238.667 201.834 238.5C201.5 234.833 201.334 231.5 203.5 228C204.334 226.5 205.667 225.333 207.167 224C209.5 221.833 211.834 219.833 211.834 217.167C211.834 216.833 212 216.667 212.334 216.667C212.5 216.5 212.834 216.833 212.834 217C212.834 218.5 213.167 220 213.334 221.333C214 225.333 214.667 229.333 211.834 232.833C210.334 234.833 208.5 236.5 206.667 237.167C205.667 237.667 202.667 238.833 202.5 238.833H202.334ZM212.167 219.833C211.167 221.667 209.5 223.167 207.834 224.667C206.5 226 205.167 227.167 204.334 228.5C202.5 231.667 202.5 234.5 202.834 237.667C203.667 237.333 205.5 236.667 206.167 236.333C207.834 235.667 209.667 234.167 211.167 232.333C213.667 229 213 225.333 212.334 221.5C212.334 221 212.167 220.5 212.167 219.833Z" fill="black"/>
<path d="M206.167 256.333C205.833 252.5 205.667 249.5 207.667 246C209.833 242.5 216.167 239.667 216.167 235C216.333 240.333 219 245.667 215.333 250.5C214 252.167 212.167 253.833 210.167 254.667C209.333 255 206.167 256.333 206.167 256.333Z" fill="#FAC000"/>
<path d="M205.667 257V256.333C205.333 252.667 205.167 249.5 207.333 245.833C208.167 244.333 209.5 243.167 211 241.833C213.333 239.833 215.667 237.667 215.667 235H216.667C216.667 236.333 217 237.833 217.167 239.167C217.833 243.167 218.5 247.167 215.667 250.833C214.167 252.833 212.333 254.333 210.5 255.167C209.5 255.5 206.5 256.667 206.333 256.667L205.667 257ZM216 237.667C215 239.5 213.333 241 211.667 242.5C210.167 243.833 208.833 245 208.167 246.333C206.333 249.5 206.333 252.333 206.667 255.5C207.5 255.167 209.333 254.5 210 254.167C211.667 253.5 213.5 252 215 250.167C217.5 246.833 216.833 243.333 216.167 239.333C216.167 238.833 216 238.333 216 237.667Z" fill="black"/>
<path d="M206.667 277.333C206.333 273.667 206.167 270.5 208.167 267.167C210.333 263.667 216.667 260.667 216.667 256.167C216.833 261.333 219.5 266.833 215.833 271.667C214.5 273.333 212.667 275 210.833 275.833C209.833 276.167 207.5 276.333 207 277.167L206.667 277.333Z" fill="#FAC000"/>
<path d="M206.667 277.833H206.5C206.333 277.833 206.167 277.667 206.167 277.5C205.833 273.833 205.667 270.5 207.833 267C208.667 265.5 210 264.333 211.5 263C213.833 260.833 216.167 258.833 216.167 256.167C216.167 255.833 216.333 255.667 216.667 255.667C216.833 255.667 217.167 255.833 217.167 256C217.167 257.5 217.5 259 217.667 260.333C218.333 264.333 219 268.333 216.167 271.833C214.667 273.833 212.833 275.5 211 276.167C210.5 276.333 210 276.5 209.5 276.667C208.833 276.833 207.667 277 207.5 277.333C207.5 277.5 207.333 277.5 207.333 277.667L207 277.833C206.833 277.833 206.833 277.833 206.667 277.833ZM216.5 258.833C215.5 260.667 213.833 262.167 212.167 263.667C210.833 265 209.5 266.167 208.667 267.5C206.833 270.5 206.833 273.333 207.167 276.333C207.667 276 208.5 275.833 209.333 275.667C209.833 275.5 210.333 275.5 210.5 275.333C212.333 274.667 214 273.167 215.5 271.333C218 268 217.333 264.333 216.667 260.5C216.667 260 216.5 259.5 216.5 258.833Z" fill="black"/>
<path d="M209.834 299.5C209.5 295.833 209.5 292.667 211.5 289.333C213.5 285.833 219.834 282.833 219.834 278.333C220.167 283.5 222.667 289 219 293.833C217.834 295.5 216 297.167 214 298C213 298.333 209.834 299.5 209.834 299.5Z" fill="#FAC000"/>
<path d="M209.834 300H209.667C209.5 299.833 209.5 299.833 209.5 299.667C209 296 208.834 292.667 211 289.167C211.834 287.667 213.334 286.5 214.667 285.167C217 283 219.334 281 219.334 278.333C219.334 278 219.667 277.833 219.834 277.833C220.167 277.833 220.334 278 220.334 278.167C220.5 279.667 220.667 281.167 221 282.5C221.667 286.5 222.334 290.5 219.5 294C218 296 216 297.667 214.167 298.333C213.167 298.833 210.167 300 210.167 300C210 300 210 300 209.834 300ZM219.667 281C218.834 282.833 217 284.333 215.334 285.833C214 287.167 212.667 288.333 211.834 289.667C210 292.833 210 295.667 210.334 298.833C211.334 298.5 213.167 297.833 213.834 297.5C215.5 296.833 217.334 295.333 218.667 293.5C221.167 290.167 220.667 286.5 220 282.667C219.834 282.167 219.834 281.5 219.667 281Z" fill="black"/>
<path d="M217 313C216.667 309.167 216.5 306.167 218.5 302.833C220.667 299.167 227 296.333 227 291.667C227.167 297 229.833 302.5 226.167 307.167C224.833 308.833 223 310.5 221 311.333C220 311.833 217 313 217 313Z" fill="#FAC000"/>
<path d="M217 313.5C216.833 313.5 216.833 313.5 216.667 313.333C216.667 313.333 216.5 313.167 216.5 313C216.167 309.5 216 306.167 218.167 302.5C219 301.167 220.333 299.833 221.833 298.5C224.167 296.5 226.5 294.333 226.5 291.667C226.5 291.5 226.667 291.167 227 291.167C227.167 291.167 227.5 291.333 227.5 291.667C227.5 293 227.833 294.5 228 296C228.667 299.833 229.333 303.833 226.5 307.5C225 309.5 223.167 311 221.333 311.833C220.333 312.167 217.333 313.333 217.167 313.5H217ZM226.833 294.5C225.833 296.333 224.167 297.833 222.5 299.333C221 300.5 219.667 301.667 219 303C217.167 306.167 217.167 309.167 217.333 312.333C218.333 312 220.167 311.167 220.833 311C222.5 310.167 224.333 308.833 225.667 307C228.333 303.667 227.667 300 227 296.167C227 295.5 226.833 295 226.833 294.5Z" fill="black"/>
<path d="M188.333 205.5C187.833 201.833 187.167 198.833 184.5 196C181.5 193 174.667 191.5 173.5 187C174.667 192.333 173.333 198.167 178.167 202C179.833 203.333 182 204.5 184 204.833C185.167 205 188.333 205.5 188.333 205.5Z" fill="#FAC000"/>
<path d="M188.333 206C188.167 206 185 205.5 184 205.333C182 205 179.667 203.833 177.833 202.333C174.167 199.5 173.833 195.333 173.5 191.5C173.5 190 173.333 188.5 173 187.167C173 186.833 173.167 186.667 173.5 186.5C173.667 186.5 174 186.667 174 187C174.667 189.5 177.5 191 180.167 192.5C182 193.5 183.667 194.333 184.833 195.667C187.667 198.667 188.333 201.833 188.833 205.5C188.833 205.667 188.833 205.667 188.833 205.833C188.667 206 188.5 206 188.333 206ZM174.5 189.667C174.5 190.333 174.5 190.833 174.5 191.333C174.833 195.333 175.167 199 178.5 201.667C180.167 203 182.333 204 184.167 204.333C184.833 204.5 186.833 204.833 187.833 205C187.333 201.833 186.667 198.833 184 196.167C183 195.167 181.5 194.333 179.833 193.333C177.833 192.333 175.833 191.167 174.5 189.667Z" fill="black"/>
<path d="M186.167 188.333C187.333 184.833 188.167 181.833 187 178C185.833 174.167 180.333 169.833 181.5 165.333C180 170.5 176.167 175.167 178.5 180.667C179.5 182.667 180.833 184.667 182.5 185.833C183.333 186.5 186 187.333 186.167 188.333Z" fill="#FAC000"/>
<path d="M186.167 188.833C185.833 188.833 185.667 188.667 185.667 188.5C185.5 188 184.333 187.333 183.5 187C183 186.667 182.5 186.5 182.167 186.167C180.667 185 179.167 183.167 178.167 180.833C176.333 176.667 177.833 173 179.5 169.333C180 168 180.5 166.667 181 165.167C181 165 181.333 164.833 181.5 164.833C181.833 165 182 165.167 182 165.5C181.333 168.167 183.167 170.667 184.833 173.167C186 174.833 187 176.333 187.5 177.833C188.667 182 187.833 185 186.667 188.5C186.5 188.667 186.333 188.833 186.167 188.833ZM181 168.167C180.833 168.667 180.5 169.167 180.333 169.667C178.833 173.333 177.333 176.667 179 180.5C180 182.5 181.333 184.333 182.833 185.5C183 185.667 183.5 185.833 184 186.167C184.667 186.5 185.5 186.833 186 187.333C187 184.333 187.5 181.5 186.5 178.167C186.167 176.833 185.167 175.333 184 173.833C182.833 172 181.5 170 181 168.167Z" fill="black"/>
<path d="M191.5 225.667C191 221.833 190.333 219 187.5 216C184.667 213.167 177.833 211.667 176.667 207.167C177.667 212.333 176.5 218.333 181.167 222.167C182.833 223.5 185 224.667 187.167 225C188.167 225.167 191.5 225.667 191.5 225.667Z" fill="#FAC000"/>
<path d="M191.5 226.167H191.333C191.333 226.167 188 225.667 187 225.5C185 225.167 182.833 224 180.833 222.5C177.333 219.667 177 215.5 176.667 211.667C176.5 210.167 176.333 208.667 176.167 207.333C176.167 207 176.333 206.833 176.5 206.667C176.833 206.667 177 206.833 177.167 207.167C177.833 209.667 180.667 211.167 183.333 212.667C185 213.667 186.667 214.5 187.833 215.667C190.833 218.833 191.5 222 192 225.667C192 225.667 192 225.833 191.833 226C191.667 226.167 191.667 226.167 191.5 226.167ZM177.5 209.833C177.5 210.333 177.667 211 177.667 211.5C178 215.5 178.167 219.167 181.5 221.667C183.333 223.167 185.333 224.167 187.167 224.5C188 224.667 189.833 225 190.833 225C190.333 222 189.667 219 187.167 216.333C186.167 215.333 184.5 214.5 182.833 213.5C180.833 212.5 178.833 211.333 177.5 209.833Z" fill="black"/>
<path d="M195.167 244.167C194.5 240.5 193.833 237.5 191.167 234.667C188.167 231.667 181.333 230.167 180.333 225.667C181.333 231 180.167 236.833 184.833 240.667C186.5 242 188.667 243.167 190.667 243.5C191.833 243.667 195.167 244.167 195.167 244.167Z" fill="#FAC000"/>
<path d="M195.167 244.667C195 244.667 195 244.667 195 244.667C194.833 244.667 191.667 244.167 190.667 244C188.667 243.667 186.5 242.5 184.5 241C180.833 238.167 180.5 234 180.333 230.167C180.167 228.667 180 227.167 179.833 225.833C179.667 225.5 179.833 225.333 180.167 225.167C180.5 225.167 180.667 225.333 180.667 225.667C181.333 228.167 184.167 229.667 187 231.167C188.667 232.167 190.333 233 191.5 234.333C194.5 237.333 195.167 240.5 195.667 244.167C195.667 244.333 195.5 244.333 195.5 244.5C195.333 244.667 195.167 244.667 195.167 244.667ZM181.167 228.333C181.167 229 181.167 229.5 181.333 230C181.5 234 181.833 237.667 185.167 240.333C187 241.667 189 242.667 190.833 243C191.5 243.167 193.5 243.5 194.5 243.667C194 240.5 193.333 237.5 190.667 234.833C189.667 233.833 188.167 233 186.5 232C184.5 231 182.5 229.833 181.167 228.333Z" fill="black"/>
<path d="M197.667 263.667C197 260 196 257.167 193.167 254.5C190 251.667 183.167 250.667 181.667 246.333C183 251.333 182.333 257.333 187.167 260.833C189 262.167 191.167 263.167 193.333 263.333C194.333 263.5 197.667 263.667 197.667 263.667Z" fill="#FAC000"/>
<path d="M197.667 264.167C197.5 264.167 194.333 264 193.333 263.833C191.333 263.667 189 262.667 187 261.167C183.167 258.5 182.5 254.5 182 250.667C181.833 249.167 181.667 247.667 181.167 246.333C181.167 246.167 181.333 245.833 181.5 245.833C181.833 245.667 182.167 245.833 182.167 246.167C183 248.667 186 250 188.667 251.333C190.5 252.167 192.333 253 193.5 254C196.667 257 197.5 260.167 198.167 263.667C198.167 263.833 198.167 264 198.167 264C198 264.167 197.833 264.167 197.667 264.167ZM182.667 248.833C182.833 249.333 182.833 250 183 250.5C183.5 254.333 184 258 187.5 260.5C189.5 261.833 191.5 262.667 193.333 262.833C194.167 263 196 263.167 197.167 263.167C196.5 260.167 195.5 257.333 192.833 254.833C191.667 253.833 190 253 188.333 252.167C186.333 251.333 184.167 250.333 182.667 248.833Z" fill="black"/>
<path d="M198.333 284.667C198.333 280.833 198.167 277.833 195.833 274.5C193.5 271.167 186.833 268.833 186.5 264.167C186.667 269.5 184.667 275.167 188.667 279.667C190.167 281.167 192.167 282.667 194.167 283.333C195.167 283.667 198.333 284.667 198.333 284.667Z" fill="#FAC000"/>
<path d="M198.333 285.167L198.167 285C198 285 195 284.167 194 283.833C192 283.167 190 281.833 188.333 280C185.167 276.5 185.5 272.5 185.833 268.5C186 267.167 186 265.667 186 264.333C186 264 186.167 263.833 186.5 263.833C186.667 263.667 187 264 187 264.167C187.167 266.833 189.833 268.833 192.167 270.667C193.833 271.833 195.333 273 196.333 274.333C198.667 277.667 198.833 281 198.833 284.667C198.833 284.833 198.833 284.833 198.667 285C198.5 285 198.5 285.167 198.333 285.167ZM187 267C186.833 267.5 186.833 268.167 186.833 268.667C186.5 272.5 186.167 276.167 189 279.333C190.667 281 192.5 282.333 194.333 282.833C195 283.167 196.833 283.667 197.833 284C197.833 280.833 197.667 277.833 195.5 274.833C194.667 273.667 193.167 272.5 191.667 271.333C189.833 270 188 268.667 187 267Z" fill="black"/>
<path d="M205.333 301.333C204.333 297.667 203.333 294.833 200.167 292.333C197 289.667 190 289 188.333 284.667C190 289.667 189.5 295.833 194.667 299C196.5 300.167 198.833 301 200.833 301.167C202 301.167 205.333 301.333 205.333 301.333Z" fill="#FAC000"/>
<path d="M205.333 301.833C205.167 301.833 202 301.667 200.833 301.667C198.833 301.5 196.5 300.667 194.333 299.333C190.5 297 189.667 293 188.833 289C188.667 287.667 188.333 286.167 187.833 284.833C187.833 284.667 188 284.333 188.167 284.167C188.5 284.167 188.667 284.333 188.833 284.5C189.833 287 192.833 288.167 195.667 289.333C197.5 290.167 199.167 290.833 200.5 291.833C203.833 294.5 204.833 297.667 205.833 301.167C205.833 301.333 205.833 301.5 205.667 301.667C205.667 301.667 205.5 301.833 205.333 301.833ZM189.5 287.167C189.667 287.833 189.833 288.333 189.833 288.833C190.667 292.667 191.333 296.333 195 298.5C196.833 299.833 199.167 300.667 201 300.667C201.667 300.667 203.667 300.833 204.667 300.833C203.833 297.667 202.833 295 199.833 292.667C198.667 291.667 197 291 195.333 290.333C193.167 289.5 191 288.667 189.5 287.167Z" fill="black"/>
<path d="M214.167 315.833C212.5 312.5 211 309.833 207.5 307.833C203.833 305.667 196.833 306.333 194.5 302.333C197 307 197.667 313 203.167 315.333C205.167 316.167 207.667 316.667 209.833 316.5C210.833 316.333 214.167 315.833 214.167 315.833Z" fill="#FAC000"/>
<path d="M208.667 317C207 317 205 316.5 203 315.833C198.667 314 197.167 310.167 195.833 306.5C195.333 305.167 194.667 303.833 194 302.5C194 302.333 194 302 194.333 301.833C194.5 301.667 194.833 301.833 195 302C196.333 304.333 199.5 305 202.5 305.667C204.5 306.167 206.333 306.5 207.833 307.333C211.5 309.5 213 312.333 214.667 315.667C214.667 315.833 214.667 316 214.5 316.167C214.5 316.167 214.333 316.333 214.167 316.333C214 316.333 210.833 316.833 209.833 317C209.5 317 209.167 317 208.667 317ZM196.167 304.667C196.333 305.167 196.5 305.667 196.667 306.167C198.167 309.833 199.5 313.333 203.5 314.833C205.167 315.667 207.167 316 208.667 316C209 316 209.333 316 209.667 316C210.5 315.833 212.333 315.667 213.333 315.5C212 312.5 210.5 310 207.333 308.167C206 307.5 204.167 307.167 202.333 306.667C200.167 306.167 197.833 305.667 196.167 304.667Z" fill="black"/>
<path d="M192.334 170C188 168.5 186.167 161.833 186.334 157.667C186.5 152.167 190.834 148.167 190.834 142.833C190.334 147.833 195.167 152 195.334 156.833C195.667 161.5 193.5 165.833 192.334 170Z" fill="#FAC000"/>
<path d="M192.667 170.667L192.167 170.5C187.334 168.833 185.667 161.667 185.834 157.667C186 154.833 187 152.5 188.167 150C189.167 148 190.167 146 190.334 143.833C190.334 143.5 190.334 143.167 190.334 142.833H191.334C191.334 143.167 191.334 143.667 191.334 144C191.334 146.167 192.5 148.167 193.5 150.167C194.667 152.333 195.834 154.5 195.834 156.833C196 160.167 195 163.333 194 166.333C193.5 167.667 193.167 168.833 192.834 170.167L192.667 170.667ZM190.834 146.5C190.334 147.833 189.667 149.167 189.167 150.5C188 152.667 187 155 186.834 157.667C186.667 161.5 188.334 167.667 192 169.333C192.334 168.167 192.667 167.167 193 166C194 163 195 160 194.834 157C194.834 154.667 193.667 152.667 192.667 150.667C192 149.333 191.167 148 190.834 146.5Z" fill="black"/>
<path d="M192.667 195.333C192.333 195.333 192.167 195.167 192.167 195C191.667 194 190.833 193.333 189.667 192.667C188 191.333 186 190 186.167 186.833C186.167 186.667 186.5 186.333 186.667 186.333C187 186.5 187.167 186.667 187.167 187C187 189.5 188.667 190.667 190.333 191.833C191.333 192.667 192.5 193.333 193 194.667C193.167 194.833 193 195.167 192.833 195.333C192.667 195.333 192.667 195.333 192.667 195.333Z" fill="black"/>
<path d="M193.166 207.5C192.833 207.5 192.666 207.333 192.666 207C192.5 206.833 192.666 206.5 193 206.5C197.833 205.5 199.333 203.5 198.5 198.667C198.5 198.333 198.666 198.167 199 198C199.166 198 199.5 198.167 199.5 198.5C200.333 203.833 198.5 206.333 193.166 207.5Z" fill="black"/>
<path d="M198.167 235.5C198 235.5 197.667 235.333 197.667 235C197.667 231 194.833 227.333 190.833 225.833C190.5 225.833 190.333 225.5 190.5 225.333C190.667 225 190.833 224.833 191.167 225C195.5 226.5 198.667 230.667 198.667 235C198.667 235.333 198.5 235.5 198.167 235.5Z" fill="black"/>
<path d="M198.833 225.667C198.833 225.667 198.833 225.667 198.667 225.667C198.5 225.5 198.333 225.333 198.333 225C198.833 224 198.833 223 199 222C199 220.667 199.167 219.5 199.833 218C199.833 217.833 200.167 217.667 200.5 217.833C200.667 218 200.833 218.167 200.667 218.5C200.167 219.667 200 220.833 200 222C199.833 223 199.833 224.167 199.333 225.333C199.333 225.5 199 225.667 198.833 225.667Z" fill="black"/>
<path d="M191.166 211.167C191 211.167 190.833 211 190.666 210.833C190.666 210.5 190.5 210.167 190.5 209.833C190 207.667 189.666 206.333 187 205.833C186.666 205.833 186.5 205.5 186.666 205.333C186.666 205 187 204.833 187.166 204.833C190.5 205.5 191 207.333 191.5 209.667C191.5 210 191.666 210.333 191.666 210.667C191.833 210.833 191.666 211.167 191.333 211.167C191.333 211.167 191.333 211.167 191.166 211.167Z" fill="black"/>
<path d="M197.333 248C197.167 248 196.833 247.833 196.833 247.5C196.667 245.333 197.5 243 199.167 241.167C199.5 240.833 200 240.5 200.333 240.167C201.333 239.5 202 238.833 202 237.667C202 237.333 202.167 237.167 202.5 237.167C202.833 237.167 203 237.333 203 237.667C203 239.333 202 240.167 201 241C200.667 241.167 200.167 241.5 199.833 241.833C198.333 243.5 197.667 245.5 197.833 247.333C197.833 247.667 197.667 247.833 197.333 248Z" fill="black"/>
<path d="M203.167 261.667C203 261.667 202.834 261.5 202.667 261.333C202.5 259.333 203.667 258.167 204.834 257C205.167 256.667 205.667 256.167 206 255.667C206.167 255.5 206.334 255.333 206.667 255.5C206.834 255.667 207 256 206.834 256.167C206.5 256.833 206 257.333 205.5 257.667C204.5 258.667 203.5 259.667 203.667 261.167C203.834 261.333 203.667 261.667 203.334 261.667C203.334 261.667 203.334 261.667 203.167 261.667Z" fill="black"/>
<path d="M200.333 265.167C199.167 265.167 198.167 264.833 197.333 264C197.167 263.667 197.167 263.5 197.333 263.333C197.667 263 198 263.167 198.167 263.333C199 264.333 200.5 264.167 202.167 264H202.333C202.667 264 203 264.167 203 264.5C203 264.667 202.833 265 202.5 265H202.333C201.667 265 201 265.167 200.333 265.167Z" fill="black"/>
<path d="M203 284.5C202.833 284.5 202.5 284.333 202.5 284C202.5 283.833 202.667 283.5 202.833 283.5C206 282.833 206.5 279 206.167 277C206.167 276.667 206.5 276.5 206.667 276.333C207 276.333 207.167 276.5 207.167 276.833C207.667 280.167 206.5 283.667 203.167 284.333C203 284.5 203 284.5 203 284.5Z" fill="black"/>
<path d="M206.667 302C205.833 302 205.167 301.667 204.667 301.167C204.5 300.833 204.667 300.5 204.833 300.5C205.167 300.333 205.333 300.333 205.5 300.5C206.167 301.5 207.5 301 208 300.833C208.333 300.667 208.667 300.833 208.667 301C208.833 301.333 208.667 301.5 208.5 301.667C207.833 302 207.167 302 206.667 302Z" fill="black"/>
<path d="M202.333 286.667C200.5 286.667 199.333 286.333 198 284.667C197.833 284.333 197.833 284.167 198 284C198.333 283.833 198.5 283.833 198.667 284C200.167 285.667 201.167 285.833 204.167 285.667C204.5 285.667 204.667 285.833 204.667 286C204.833 286.333 204.5 286.5 204.333 286.667C203.5 286.667 203 286.667 202.333 286.667Z" fill="black"/>
<path d="M209.5 299.333C209.167 299.667 208.833 300.167 208.333 300.333C207.833 300.333 207.833 301.333 208.333 301.167C209.333 301.167 209.667 300.5 210.167 300C210.5 299.5 209.833 298.833 209.5 299.333Z" fill="black"/>
<path d="M193 183.833C192.5 183.833 192.167 183.833 191.833 183.667C191.667 183.667 191.333 183.667 191.167 183.667C191 183.667 190.667 183.5 190.667 183.333C190.667 183 190.833 182.833 191.167 182.667C191.333 182.667 191.667 182.667 192 182.833C193.5 182.833 195.667 183.167 196.667 179.833C196.667 179.667 197 179.5 197.167 179.5C197.5 179.667 197.667 179.833 197.5 180.167C196.667 183.333 194.5 183.833 193 183.833Z" fill="black"/>
<path d="M224 325.667C220.667 321.5 221.667 319.167 216.833 315.167C217 314.5 217.167 313.833 217.5 313.167C217.667 312.667 216.667 312.333 216.5 313C216.333 313.333 216.167 313.833 216 314.167C215.167 312.667 214.333 311.5 213.667 310.333C212.667 308.833 212 307.667 211.667 307C211.167 305.5 210.667 304.167 210 303L209.667 302.333C208.833 300.667 208.333 296.5 208.167 294.167C207.833 290.667 206 287.667 204.667 285.833C204.167 285.167 203.667 284.667 203.167 284C201.667 282.333 200.333 280.833 199.5 278.5C198.667 275.833 199.167 272.5 200.833 269.333C202.5 266.333 204 263 203.833 259.833C203.833 257.333 202.5 255.5 201.167 253.833C200.5 252.833 199.833 251.833 199.333 250.833C196.333 244.833 197.167 241.333 198.333 237.333C198.833 235.5 199.333 233.5 199.5 231.167C199.833 226.833 199 223.667 197.167 221.167C196.333 219.833 195.333 219 194.667 218.333C193 216.667 191.833 215.667 191.833 212.167C191.833 209 192.833 207.667 193.833 206.5C194.667 205.333 195.5 204.333 195.667 202.167C195.833 199.167 194.5 196.833 193.167 194.5C192.167 192.667 191.333 191 191 189.167C190.5 186.333 191.167 182.667 192.667 180.167C193 179.667 193.333 179.333 193.667 179C194.333 178.333 194.833 177.833 195 176C195.167 174.167 194.5 172.667 193.833 171.333C193.5 170.667 193.167 170.167 193 169.5L191.833 170C192.167 170.667 192.333 171.167 192.667 171.833C193.333 173.167 194 174.333 193.833 175.833C193.667 177.333 193.333 177.667 192.833 178.167C192.5 178.5 192.167 178.833 191.667 179.5C190 182.333 189.333 186.333 189.833 189.333C190.167 191.5 191.167 193.333 192.167 195C193.333 197.333 194.5 199.5 194.5 202.167C194.333 203.833 193.667 204.833 192.833 205.833C191.833 207.167 190.667 208.667 190.667 212.167C190.667 216.167 192 217.5 193.833 219.167C194.5 219.833 195.333 220.667 196.333 221.833C197.833 224 198.5 227 198.333 231.167C198.167 233.333 197.667 235.333 197.167 237.167C196 241.167 195 245 198.167 251.333C198.667 252.5 199.5 253.5 200.167 254.5C201.333 256.167 202.667 257.833 202.667 259.833C202.833 263 201.333 266.167 199.833 268.667C198 272.333 197.5 275.833 198.5 278.833C199.167 281.333 200.667 283.167 202.167 284.833C202.667 285.333 203.167 285.833 203.667 286.5C205 288.333 206.667 291 206.833 294.333C207 296.167 207.667 300.833 208.667 302.833L208.833 303.5C209.5 304.667 210.167 305.833 210.5 307.333C210.833 308.167 211.5 309.333 212.667 311C213.5 312.167 214.5 313.833 215.5 315.667C215.167 315.667 214.667 315.667 214.333 315.5C213.667 315.167 213.5 316.167 214 316.333C214.667 316.667 215.333 316.667 216.167 316.5C216.333 316.5 216.333 316.333 216.333 316.333C216.333 316.333 219.667 319.333 220 321.667C220 321.833 220 321.833 220 321.833C220.833 323.667 221.833 325.333 223.5 326.667C224 327 224.5 326.167 224 325.667Z" fill="black"/>
<path d="M328.166 154.5C327.333 147 319.666 145.333 318 145.167C317.833 143.5 316.333 142.833 315 142.833C313.833 142.833 313 143.167 312.5 143.667C312 144.167 311.833 144.833 311.833 145.333C306 145.833 303.333 149.833 302.333 152.667L301.666 151.833L301.5 152.833C300.833 156.167 300.5 162.5 302.666 165.333C305 168.5 308.666 170.5 312.5 170.5C317 170.5 320.666 169.667 323.166 167.833C326.666 165.5 328.333 161.5 328.5 155.167V154.333L328.166 154.5Z" fill="black"/>
<path d="M323.333 159.5L322.666 160.667L322.499 159.333C322.333 157.333 321.499 154.333 319.666 152.167C317.499 153.667 316.666 155.667 315.833 157.667C315.666 158 315.666 158.5 315.499 158.833L314.666 160.667L314.499 158.833C314.166 156.167 313.166 154 310.999 152C309.166 153.333 307.833 156 306.833 157.667C306.666 158.167 306.499 158.667 306.333 159L305.666 159.833L305.333 158.833C304.999 157.667 303.166 155.333 302.333 154.167C301.833 157.667 301.833 162.667 303.499 164.833C305.499 167.667 308.999 169.5 312.499 169.5C315.499 169.5 319.666 169.167 322.666 167C325.666 165 327.166 161.5 327.499 156C325.833 157 324.666 157.667 323.333 159.5Z" fill="#009B4C"/>
<path d="M305.833 157.667C305.833 157.5 306 157.5 306 157.333C307 155.333 308.5 152.333 310.666 151L311 150.833L311.166 151.167C313.333 152.833 314.5 154.667 315.166 157C315.833 154.833 316.833 152.667 319.5 151.167L319.833 150.833L320 151.167C322.166 153.5 323 156.333 323.166 158.167C324.333 156.667 325.5 156 327 155.167L327.5 155C326.666 146.833 317.666 145.833 317.666 145.833H317.166V145.5C317.166 143.667 315.5 143.5 315 143.5C314 143.5 313.333 143.833 313 144.167C312.5 144.833 312.666 145.5 312.666 145.5V146H312.333C306.333 146.5 303.833 150.667 302.833 153.333C303.5 154.167 305 156.167 305.833 157.667Z" fill="white"/>
<path d="M324.666 167.667C324.333 167.5 324 167.5 323.666 167.5C322.666 167.667 321.833 168.333 321.166 169C321 167.833 320.333 166.5 318.5 166.167C318.166 166.167 318 166.167 317.833 166.167C316.5 166.333 315.666 167.167 315.166 168C315 167.5 314.666 166.833 314.166 166.5C313.666 166 312.833 165.667 311.833 165.833C310.5 165.833 309.666 166.833 309.166 167.667C308.666 166.667 307.833 165.667 306.166 165.833H306C305 166 304.166 166.333 303.666 167C303.333 167.5 303.166 167.833 303.166 168.333C302.666 168 301.833 167.667 300.666 167.833H300.5C299.666 167.833 299 168.333 298.5 169C297.5 170.667 298.333 173.667 298.666 174.833C298.333 178.167 298.666 183.667 300.666 186C303.166 189 306.833 190.667 310.5 190.333C314.833 190 318.333 189 320.666 187.167C323.666 184.667 325 181 324.833 175.667C325.833 174.667 326.5 173.167 326.5 173.167C327 171.5 327.166 168.5 324.666 167.667ZM316.166 172.167L316.333 172.333L316.166 172.167Z" fill="black"/>
<path d="M325.833 172.833C325.833 172.833 327 169.167 324.333 168.333C324.166 168.333 324 168.167 323.833 168.167C322.666 168.333 321.5 169.667 321.166 170.167L320.333 171.667L320.5 170C320.5 169.833 320.833 167.333 318.333 167C318.333 167 318.166 166.833 318 167C316.166 167 315.333 169.167 315.333 169.167L314.5 171.167L314.666 169.167C314.666 169 314.666 167.667 313.833 167C313.333 166.667 312.833 166.5 312 166.5C310.166 166.667 309.666 168.833 309.666 168.833L309.333 170.667L309 168.833C309 168.833 308.333 166.333 306.333 166.5H306.166C305.333 166.667 304.666 167 304.333 167.333C303.833 168.167 304 169.167 304 169.167L304.333 171.333L303.166 169.333C303.166 169.333 302.666 168.333 300.833 168.5H300.666C300 168.5 299.5 168.833 299.166 169.333C298 171.167 299.5 175 299.666 175V175.167C300.333 176 302.333 178.167 303.166 179.667C303.333 179.5 303.333 179.333 303.5 179.167C304.166 177.167 305.5 174.333 307.5 172.833L307.666 172.667L308 172.833C310.166 174.5 311.5 176.333 312.166 178.5C312.666 176.333 313.5 174.167 316 172.333L316.166 172.167L316.333 172.333C318.666 174.5 319.666 177.5 320 179C321.5 177 324.166 175.333 324.166 175.333C325.166 174.5 325.833 172.833 325.833 172.833Z" fill="white"/>
<path d="M320.166 180.167L319.666 181L319.5 180C319.166 178 318 175 316.166 173.167C314 174.667 313.333 176.833 312.833 178.833C312.666 179.167 312.5 179.667 312.333 180L312 181.333L311.666 180C311.166 177.333 310 175.333 307.666 173.667C306 175 304.833 177.667 304.166 179.5C303.833 179.833 303.666 180.333 303.5 180.667L303.166 181.333L302.833 180.667C302.5 179.667 301 177.833 299.5 176.167C299.5 179.5 299.833 183.667 301.5 185.5C303.666 188.167 307.166 189.667 310.5 189.5C313.333 189.333 317.333 188.5 320.166 186.333C322.833 184.333 324 181.167 324 176.333C323 177 321 178.5 320.166 180.167Z" fill="#009B4C"/>
<path d="M322 188.5C321.666 188.333 321.5 188.333 321.166 188.333C320 188.333 319.166 189 318.5 189.5C318.5 188.333 317.833 187 316 186.5C315.833 186.5 315.666 186.5 315.333 186.5C314.166 186.5 313.166 187.333 312.5 188C312.5 187.5 312.166 186.833 311.833 186.5C311.333 185.833 310.5 185.5 309.5 185.5C308.166 185.5 307.166 186.333 306.666 187.167C306.333 186.167 305.5 185.167 303.833 185H303.666C302.666 185.167 301.833 185.333 301.166 186C300.833 186.5 300.666 186.833 300.5 187.333C300.166 187 299.333 186.5 298.166 186.5H298C297.166 186.5 296.333 186.833 295.833 187.5C294.666 189.167 295.166 192.167 295.5 193.333C294.833 196.667 294.666 202.167 296.5 204.667C298.666 207.833 302.166 209.833 305.833 209.833C310.166 210 313.833 209.167 316.333 207.5C319.5 205.5 321.166 201.833 321.5 196.5C322.5 195.667 323.333 194.167 323.5 194.167C324 192.667 324.5 189.667 322 188.5ZM313.166 192.333L313.333 192.5L313.166 192.333Z" fill="black"/>
<path d="M322.833 193.833C322.833 193.833 324.166 190.167 321.833 189.167C321.499 189.167 321.333 189 321.166 189C319.999 189 318.833 190.333 318.333 190.833L317.333 192.167L317.666 190.5C317.666 190.333 318.333 187.833 315.833 187.333C315.833 187.167 315.666 187.167 315.499 187.167C313.666 187.167 312.666 189.333 312.666 189.333L311.666 191L311.833 189C311.833 189 311.999 187.667 311.333 186.833C310.833 186.5 310.333 186.333 309.499 186.167C307.666 186.167 306.999 188.333 306.999 188.333L306.499 190.167L306.333 188.333C306.333 188.333 305.999 185.833 303.833 185.833C302.999 185.833 302.333 186 301.833 186.5C301.166 187.167 301.333 188.167 301.333 188.167L301.499 190.333L300.499 188.333C300.499 188.333 299.999 187.333 298.333 187.333H298.166C297.499 187.333 296.999 187.5 296.499 188C295.333 189.667 296.333 193.667 296.499 193.667V193.833C297.166 194.667 298.833 197 299.666 198.667C299.666 198.5 299.833 198.333 299.833 198.167C300.833 196.333 302.333 193.5 304.499 192.167L304.666 192L304.833 192.167C306.999 194 308.166 196 308.499 198.167C309.333 196.167 310.333 194 312.999 192.5L313.166 192.333L313.333 192.5C315.499 194.833 316.166 197.833 316.333 199.5C318.166 197.5 320.833 196.167 320.999 196.167C321.833 195.333 322.833 193.833 322.833 193.833Z" fill="white"/>
<path d="M316.333 200.5L315.833 201.5L315.667 200.333C315.667 198.333 314.833 195.333 313 193.167C310.833 194.667 310 196.667 309.167 198.667C309 199 308.833 199.333 308.667 199.833L308.167 201.167L308 199.667C307.833 197 306.667 195 304.667 193C302.833 194.167 301.333 196.667 300.5 198.5C300.167 198.833 300 199.333 299.833 199.667L299.333 200.333L299.167 199.5C298.833 198.5 297.5 196.667 296.333 194.833C295.833 198.167 295.833 202.167 297.333 204.167C299.333 207.167 302.667 209 305.833 209C308.833 209 312.833 208.667 315.833 206.833C318.667 204.833 320.167 201.833 320.667 197.167C319.5 197.667 317.5 199 316.333 200.5Z" fill="#009B4C"/>
<path d="M320 209.333C319.666 209.167 319.5 209 319.166 209C318 209 317.166 209.667 316.5 210.333C316.5 209.167 315.833 207.667 314 207.333C313.833 207.333 313.666 207.167 313.333 207.167C312.166 207.167 311.166 208 310.5 208.667C310.5 208.167 310.166 207.667 309.833 207.167C309.333 206.5 308.5 206.333 307.5 206.333C306.166 206.167 305.166 207.167 304.666 208C304.333 207 303.5 205.833 301.833 205.833H301.666C300.666 205.833 299.833 206.167 299.166 206.667C298.833 207.167 298.666 207.667 298.5 208C298.166 207.667 297.333 207.333 296.166 207.333H296C295.166 207.333 294.333 207.667 293.833 208.333C292.666 209.833 293.166 212.833 293.5 214C292.833 217.333 292.666 222.833 294.5 225.5C296.666 228.667 300.166 230.5 303.833 230.667C308.166 230.667 311.833 230 314.333 228.333C317.5 226.167 319.166 222.667 319.5 217.167C320.5 216.333 321.333 215 321.5 214.833C322 213.333 322.5 210.333 320 209.333ZM311.166 213C311.166 213.167 311.333 213.167 311.333 213.167L311.166 213Z" fill="black"/>
<path d="M320.833 214.5C320.833 214.5 322.166 211 319.666 210C319.5 209.833 319.333 209.833 319.166 209.833C318 209.833 316.833 211 316.333 211.5L315.333 212.833L315.666 211.167C315.666 211.167 316.333 208.5 313.833 208C313.833 208 313.666 208 313.5 208C311.666 207.833 310.666 210 310.666 210L309.666 211.833L309.833 209.833C309.833 209.833 310 208.5 309.333 207.667C308.833 207.167 308.333 207 307.5 207C305.666 207 305 209 305 209.167L304.5 211L304.333 209.167C304.333 209 304 206.5 301.833 206.5C301 206.5 300.333 206.833 299.833 207.167C299.166 208 299.333 208.833 299.333 209V211.167L298.5 209C298.5 209 298 208 296.333 208H296.166C295.5 208 295 208.167 294.5 208.667C293.333 210.333 294.333 214.333 294.333 214.5L294.5 214.667C295.166 215.5 296.833 217.833 297.666 219.333C297.666 219.167 297.833 219 297.833 218.833C298.833 217 300.333 214.167 302.5 213L302.666 212.833L302.833 213C305 214.833 306.166 216.667 306.5 219C307.333 217 308.333 214.667 311 213.167L311.166 213L311.333 213.333C313.5 215.5 314.166 218.667 314.333 220.167C316.166 218.333 318.833 216.833 318.833 216.833C319.833 216.167 320.833 214.5 320.833 214.5Z" fill="white"/>
<path d="M314.333 221.333L313.833 222.167L313.666 221.167C313.5 219.167 312.833 216.167 311 214C308.833 215.333 308 217.333 307.166 219.333C307 219.667 306.833 220.167 306.666 220.5L306.166 221.833L306 220.333C305.833 217.833 304.666 215.667 302.666 213.667C300.833 215 299.333 217.5 298.5 219.167C298.166 219.667 298 220 297.833 220.333L297.333 221L297.166 220.333C296.833 219.333 295.5 217.333 294.166 215.667C293.833 218.833 293.833 223 295.333 225C297.333 227.833 300.5 229.667 303.833 229.667C306.833 229.833 310.833 229.5 313.833 227.5C316.666 225.667 318.166 222.667 318.666 217.833C317.5 218.5 315.5 219.833 314.333 221.333Z" fill="#009B4C"/>
<path d="M317.667 231.333C317.333 231.167 317.167 231.167 316.833 231.167C315.833 231.167 314.833 231.833 314.167 232.333C314.167 231.167 313.5 229.833 311.667 229.333C311.5 229.333 311.333 229.333 311.167 229.333C309.833 229.333 308.833 230.167 308.167 230.833C308.167 230.333 308 229.667 307.5 229.333C307 228.667 306.167 228.333 305.167 228.333C303.833 228.333 302.833 229.167 302.333 230C302 229 301.167 228 299.5 227.833H299.333C298.333 228 297.5 228.167 297 228.833C296.5 229.333 296.333 229.667 296.167 230.167C295.833 229.833 295 229.333 293.833 229.333H293.667C292.833 229.333 292.167 229.667 291.667 230.333C290.333 232 290.833 235 291.167 236.167C290.5 239.5 290.333 245 292.167 247.5C294.333 250.667 297.833 252.667 301.5 252.667C306 252.833 309.5 252 312 250.333C315.167 248.333 316.833 244.667 317.333 239.333C318.167 238.333 319 237 319.167 237C319.667 235.5 320.167 232.5 317.667 231.333ZM308.833 235.167C309 235.167 309 235.333 309 235.333L308.833 235.167Z" fill="black"/>
<path d="M318.5 236.667C318.5 236.667 319.833 233 317.5 232C317.333 232 317 231.833 316.833 231.833C315.666 231.833 314.5 233.167 314 233.667L313 235L313.333 233.333C313.333 233.167 314 230.667 311.666 230.167C311.5 230 311.333 230 311.166 230C309.333 230 308.333 232 308.333 232.167L307.333 233.833L307.5 231.833C307.666 231.833 307.666 230.5 307 229.667C306.666 229.333 306 229.167 305.333 229C303.333 229 302.666 231.167 302.666 231.167L302.166 233L302 231.167C302 231.167 301.666 228.667 299.5 228.667C298.666 228.667 298 228.833 297.5 229.333C296.833 230 297 231 297 231L297.166 233.167L296.166 231.167C296.166 231.167 295.666 230.167 294 230.167H293.833C293.166 230.167 292.666 230.333 292.333 230.833C291 232.5 292 236.5 292.166 236.5V236.667C292.833 237.5 294.5 239.833 295.333 241.5C295.333 241.333 295.5 241.167 295.5 241C296.5 239.167 298 236.333 300.166 235L300.333 234.833L300.666 235C302.666 236.833 303.833 238.833 304.166 241C305 239 306 236.833 308.666 235.333L308.833 235.167L309.166 235.333C311.166 237.667 311.833 240.667 312 242.333C313.833 240.333 316.5 239 316.666 239C317.5 238.167 318.5 236.667 318.5 236.667Z" fill="white"/>
<path d="M312 243.333L311.5 244.333L311.333 243.167C311.333 241.167 310.5 238.167 308.667 236C306.5 237.5 305.667 239.5 304.833 241.5C304.667 241.833 304.5 242.167 304.333 242.5L303.833 244L303.667 242.5C303.5 239.833 302.5 237.833 300.333 235.833C298.5 237 297.167 239.5 296.167 241.333C296 241.667 295.667 242.167 295.5 242.5L295.167 243.167L294.833 242.333C294.5 241.333 293.167 239.5 292 237.667C291.5 241 291.667 245 293 247C295 250 298.333 251.833 301.5 251.833C304.5 251.833 308.5 251.5 311.5 249.667C314.333 247.667 315.833 244.667 316.333 240C315.333 240.5 313.167 241.833 312 243.333Z" fill="#009B4C"/>
<path d="M313 252C312.666 251.833 312.5 251.833 312.166 251.833C311 251.833 310.166 252.5 309.5 253C309.333 251.833 308.833 250.5 307 250C306.833 250 306.666 250 306.333 250C305.166 249.833 304.166 250.667 303.5 251.5C303.5 251 303.166 250.333 302.833 249.833C302.333 249.333 301.5 249 300.5 249C299.166 249 298.166 249.833 297.666 250.667C297.333 249.667 296.5 248.5 294.833 248.5H294.666C293.666 248.5 292.833 248.833 292.166 249.5C291.833 249.833 291.666 250.333 291.5 250.833C291.166 250.333 290.333 250 289.166 250H289C288.166 250 287.333 250.333 286.833 251C285.666 252.5 286.166 255.667 286.5 256.833C285.833 260.167 285.666 265.667 287.5 268.167C289.666 271.333 293.166 273.333 296.833 273.333C301.166 273.5 304.666 272.667 307.333 271C310.5 268.833 312.166 265.333 312.5 259.833C313.5 259 314.333 257.667 314.5 257.5C315 256.167 315.5 253 313 252ZM304.166 255.833C304.166 255.833 304.333 255.833 304.333 256L304.166 255.833Z" fill="black"/>
<path d="M313.833 257.167C313.833 257.167 315.166 253.667 312.666 252.667C312.5 252.5 312.333 252.5 312.166 252.5C311 252.5 309.666 253.833 309.333 254.333L308.333 255.667L308.666 254C308.666 253.833 309.333 251.333 306.833 250.667C306.666 250.667 306.666 250.667 306.5 250.667C304.666 250.667 303.666 252.667 303.666 252.667L302.666 254.5L302.833 252.5C302.833 252.5 303 251.167 302.333 250.333C301.833 250 301.333 249.667 300.5 249.667C298.666 249.667 298 251.833 298 251.833L297.5 253.667L297.333 251.833C297.333 251.667 297 249.333 294.833 249.167C294 249.333 293.333 249.5 292.833 250C292.166 250.667 292.333 251.667 292.333 251.667V253.833L291.5 251.833C291.5 251.833 291 250.833 289.333 250.667H289.166C288.5 250.667 287.833 251 287.5 251.333C286.333 253 287.333 257.167 287.333 257.167L287.5 257.333C288 258.167 289.833 260.5 290.5 262C290.666 261.833 290.666 261.667 290.833 261.5C291.833 259.667 293.333 256.833 295.5 255.667L295.666 255.5L295.833 255.667C298 257.5 299.166 259.333 299.5 261.667C300.333 259.667 301.333 257.5 304 255.833L304.166 255.667L304.333 256C306.5 258.333 307.166 261.333 307.333 262.833C309 261 311.833 259.667 311.833 259.5C312.833 258.833 313.833 257.333 313.833 257.167Z" fill="white"/>
<path d="M307.333 264L306.833 264.833L306.666 263.833C306.5 261.833 305.833 258.833 304 256.667C301.833 258.167 301 260.167 300.166 262C300 262.5 299.833 262.833 299.666 263.167L299.166 264.5L299 263.167C298.833 260.5 297.666 258.333 295.666 256.5C293.666 257.667 292.333 260.167 291.5 261.833C291.166 262.333 291 262.833 290.833 263L290.333 263.833L290.166 263C289.833 262 288.5 260 287.166 258.333C286.833 261.5 286.833 265.667 288.333 267.667C290.333 270.5 293.5 272.333 296.833 272.5C299.833 272.5 303.833 272.167 306.833 270.333C309.666 268.333 311.166 265.333 311.666 260.5C310.5 261.167 308.5 262.5 307.333 264Z" fill="#009B4C"/>
<path d="M309.333 272.5C309 272.333 308.667 272.333 308.333 272.333C307.333 272.333 306.333 273 305.667 273.5C305.667 272.333 305.167 271 303.333 270.5C303 270.5 302.833 270.5 302.667 270.5C301.333 270.5 300.333 271.333 299.833 272C299.667 271.5 299.5 271 299 270.5C298.5 269.833 297.833 269.5 296.833 269.5C295.333 269.5 294.5 270.333 294 271.167C293.5 270.167 292.667 269.167 291.167 269H291C289.833 269.167 289 269.5 288.5 270C288.167 270.5 288 270.833 287.833 271.333C287.333 271 286.667 270.5 285.5 270.5H285.333C284.333 270.5 283.667 270.833 283.167 271.5C282 273.167 282.5 276.167 282.667 277.333C282.167 280.667 281.833 286.167 283.667 288.667C285.833 291.833 289.5 293.833 293.167 293.833C297.5 294 301 293.167 303.5 291.5C306.667 289.5 308.5 285.833 308.833 280.5C309.833 279.667 310.667 278.167 310.667 278.167C311.333 276.667 311.667 273.667 309.333 272.5ZM300.5 276.333V276.5V276.333Z" fill="black"/>
<path d="M310 277.833C310 277.833 311.5 274.333 309 273.167C308.833 273.167 308.667 273 308.5 273C307.333 273 306 274.333 305.667 274.833L304.667 276.167L305 274.5C305 274.333 305.5 271.833 303.167 271.333C303 271.167 302.833 271.167 302.667 271.167C301 271.167 299.833 273.333 299.833 273.333L299 275L299.167 273C299.167 273 299.333 271.667 298.5 271C298.167 270.5 297.667 270.333 296.833 270.333C295 270.167 294.333 272.333 294.333 272.5L293.833 274.167L293.5 272.333C293.5 272.333 293.167 269.833 291.167 269.833H291C290.167 269.833 289.5 270 289.167 270.5C288.5 271.167 288.5 272.167 288.5 272.167L288.667 274.333L287.833 272.333C287.833 272.333 287.333 271.333 285.5 271.333H285.333C284.667 271.333 284.167 271.5 283.833 272C282.5 273.667 283.667 277.667 283.667 277.667V277.833C284.333 278.667 286 281 286.833 282.667C287 282.5 287 282.333 287.167 282.167C288 280.333 289.5 277.5 291.667 276.167L292 276L292.167 276.167C294.167 278 295.333 280 295.833 282.167C296.667 280.167 297.667 278 300.167 276.5L300.5 276.333L300.667 276.5C302.667 278.833 303.333 281.833 303.667 283.5C305.333 281.5 308 280.167 308.167 280.167C309.167 279.5 310 277.833 310 277.833Z" fill="white"/>
<path d="M303.667 284.5L303 285.5V284.333C302.833 282.333 302 279.333 300.333 277.167C298 278.667 297.167 280.667 296.5 282.667C296.333 283 296.167 283.333 296 283.833L295.333 285.167L295.167 283.667C295 281 294 279 291.833 277C290 278.167 288.667 280.667 287.667 282.5C287.5 283 287.333 283.333 287.167 283.667L286.667 284.333L286.333 283.5C286.167 282.5 284.833 280.667 283.5 278.833C283.167 282.167 283.167 286.333 284.5 288.167C286.5 291.167 289.833 293 293.167 293C296 293 300.167 292.667 303 290.833C305.833 289 307.5 285.833 307.833 281.167C306.833 281.667 304.667 283 303.667 284.5Z" fill="#009B4C"/>
<path d="M305.667 292.5C305.333 292.333 305 292.333 304.667 292.333C303.667 292.333 302.667 293 302 293.5C302 292.333 301.5 291 299.667 290.5C299.5 290.5 299.167 290.5 299 290.5C297.667 290.5 296.667 291.167 296.167 292C296 291.5 295.833 290.833 295.333 290.333C294.833 289.833 294.167 289.5 293.167 289.5C291.833 289.5 290.833 290.333 290.333 291.167C289.833 290.167 289 289 287.5 289H287.333C286.167 289 285.5 289.333 284.833 290C284.5 290.333 284.333 290.833 284.167 291.333C283.667 290.833 283 290.5 281.833 290.5H281.667C280.667 290.5 280 290.833 279.5 291.5C278.333 293 278.833 296.167 279.167 297.333C278.5 300.667 278.333 306.167 280 308.667C282.167 311.833 285.833 313.833 289.5 313.833C293.833 314 297.333 313.167 299.833 311.5C303.167 309.333 304.833 305.833 305.167 300.333C306.167 299.5 307 298.167 307 298C307.667 296.667 308 293.5 305.667 292.5ZM296.833 296.333C296.833 296.333 296.833 296.333 297 296.5L296.833 296.333Z" fill="black"/>
<path d="M306.5 297.833C306.5 297.833 307.833 294.167 305.333 293.167C305.166 293 305 293 304.833 293C303.666 293 302.333 294.333 302 294.833L301 296.167L301.333 294.5C301.333 294.333 301.833 291.833 299.5 291.167C299.333 291.167 299.166 291.167 299 291.167C297.333 291.167 296.166 293.167 296.166 293.167L295.333 295L295.5 293C295.5 293 295.666 291.667 294.833 290.833C294.5 290.5 294 290.167 293.166 290.167C291.333 290.167 290.666 292.333 290.666 292.333L290.166 294.167L290 292.333C289.833 292.167 289.5 289.833 287.5 289.667H287.333C286.5 289.833 285.833 290 285.5 290.5C284.833 291.167 284.833 292.167 284.833 292.167L285 294.333L284.166 292.333C284.166 292.333 283.666 291.333 281.833 291.167H281.666C281 291.167 280.5 291.5 280.166 291.833C278.833 293.667 280 297.667 280 297.667V297.833C280.666 298.667 282.333 301 283.166 302.5C283.333 302.333 283.333 302.167 283.5 302C284.5 300.167 286 297.333 288 296.167L288.333 296L288.5 296.167C290.5 298 291.666 299.833 292.166 302.167C293 300.167 294 298 296.5 296.333L296.833 296.167L297 296.5C299.166 298.833 299.833 301.833 300 303.333C301.666 301.5 304.333 300.167 304.5 300C305.5 299.333 306.333 297.833 306.5 297.833Z" fill="white"/>
<path d="M300 304.5L299.333 305.333V304.333C299.166 302.333 298.333 299.333 296.666 297.167C294.333 298.667 293.666 300.667 292.833 302.5C292.666 303 292.5 303.333 292.333 303.667L291.666 305V303.667C291.333 301 290.333 299 288.166 297C286.333 298.167 285 300.667 284.166 302.333C283.833 302.833 283.666 303.333 283.5 303.667L283 304.333L282.833 303.5C282.5 302.5 281.166 300.5 279.833 298.833C279.5 302 279.5 306.167 280.833 308.167C282.833 311 286.166 312.833 289.5 313C292.333 313 296.5 312.667 299.333 310.833C302.333 308.833 303.833 305.833 304.166 301C303.166 301.667 301.166 303 300 304.5Z" fill="#009B4C"/>
<line x1="602.5" y1="50" x2="602.5" y2="450" stroke="#666666" stroke-width="5"/>
<defs>
<linearGradient id="paint0_linear_1115_1259" x1="758.623" y1="139.421" x2="867.811" y2="139.421" gradientUnits="userSpaceOnUse">
<stop stop-color="#3C54E5"/>
<stop offset="1" stop-color="#1712DD"/>
</linearGradient>
<linearGradient id="paint1_linear_1115_1259" x1="787.404" y1="188.186" x2="999.589" y2="188.186" gradientUnits="userSpaceOnUse">
<stop stop-color="#3C54E5"/>
<stop offset="1" stop-color="#1712DD"/>
</linearGradient>
<linearGradient id="paint2_linear_1115_1259" x1="1049.45" y1="364.607" x2="1158.64" y2="364.607" gradientUnits="userSpaceOnUse">
<stop stop-color="#3C54E5"/>
<stop offset="1" stop-color="#1712DD"/>
</linearGradient>
<linearGradient id="paint3_linear_1115_1259" x1="920.493" y1="313.052" x2="1132.68" y2="313.052" gradientUnits="userSpaceOnUse">
<stop stop-color="#3C54E5"/>
<stop offset="1" stop-color="#1712DD"/>
</linearGradient>
<linearGradient id="paint4_linear_1115_1259" x1="916.299" y1="476.03" x2="931.118" y2="288.934" gradientUnits="userSpaceOnUse">
<stop stop-color="#E89E0C"/>
<stop offset="1" stop-color="#FFC01E"/>
</linearGradient>
</defs>
</svg>
